<ttFont>
          <CharString index="0">
            4 -106 callsubr
            -4 5 return
          </CharString>
          <CharString index="1">
            5 -99 callsubr
            return
          </CharString>
          <CharString index="2">
            -107 callgsubr
            323 hlineto
            7 3 -4 -6 hvcurveto
            -318 vlineto
            -4 callsubr
            -87 vlineto
            return
          </CharString>
          <CharString index="3">
            12 -107 callsubr
            -12 vhcurveto
            return
          </CharString>
          <CharString index="4">
            385 callsubr
            7 -98 callgsubr
            return
          </CharString>
          <CharString index="5">
            -81 callsubr
            174 -95 callsubr
            -145 240 rlineto
            return
          </CharString>
          <CharString index="6">
            hlineto
            -102 callgsubr
            return
          </CharString>
          <CharString index="7">
            hlineto
            -99 callgsubr
            return
          </CharString>
          <CharString index="8">
            10 -91 callsubr
            return
          </CharString>
          <CharString index="9">
            vlineto
            -97 callgsubr
            return
          </CharString>
          <CharString index="10">
            7 -93 callsubr
            return
          </CharString>
          <CharString index="11">
            5 -106 callsubr
            -5 5 return
          </CharString>
          <CharString index="12">
            -64 callsubr
            -43 -79 callsubr
            return
          </CharString>
          <CharString index="13">
            44 -50 callsubr
            10 -5 4 47 callgsubr
            26 65 hvcurveto
            103 vlineto
            65 27 26 54 51 28 33 callsubr
            return
          </CharString>
          <CharString index="14">
            3 -86 callgsubr
            return
          </CharString>
          <CharString index="15">
            365 callgsubr
            36 hlineto
            10 5 4 11 hvcurveto
            234 349 callsubr
            -36 593 callgsubr
            -48 vhcurveto
            -64 180 callsubr
            81 116 callgsubr
            162 434 callsubr
            7 vhcurveto
            73 -101 callsubr
            return
          </CharString>
          <CharString index="16">
            hvcurveto
            -56 callsubr
            return
          </CharString>
          <CharString index="17">
            -76 callsubr
            -30 return
          </CharString>
          <CharString index="18">
            rmoveto
            -53 -31 -34 -60 vhcurveto
            -25 hlineto
            171 callgsubr
            181 -18 callgsubr
            -346 70 rmoveto
            128 callgsubr
            -53 callsubr
            return
          </CharString>
          <CharString index="19">
            vhcurveto
            38 -12 callgsubr
            314 vlineto
            54 30 30 56 216 callsubr
            -31 -32 -59 vhcurveto
            -38 hlineto
            -11 252 callgsubr
            46 hlineto
            94 55 56 93 1 hvcurveto
            87 vlineto
            94 -57 55 -93 vhcurveto
            -30 hlineto
            -47 -34 -17 -27 -13 hvcurveto
            -4 return
          </CharString>
          <CharString index="20">
            623 -95 callgsubr
            return
          </CharString>
          <CharString index="21">
            -3 -87 callsubr
            return
          </CharString>
          <CharString index="22">
            -68 callsubr
            3 4 7 55 callgsubr
            return
          </CharString>
          <CharString index="23">
            hlineto
            -107 callgsubr
            return
          </CharString>
          <CharString index="24">
            14 callsubr
            537 vlineto
            -69 callgsubr
            return
          </CharString>
          <CharString index="25">
            -107 callgsubr
            190 hlineto
            7 2 -4 -6 hvcurveto
            -149 vlineto
            -55 -28 -19 -39 vhcurveto
            -78 hlineto
            -12 -6 -7 -10 hvcurveto
            -43 383 callsubr
            return
          </CharString>
          <CharString index="26">
            -11 -63 callgsubr
            11 vhcurveto
            return
          </CharString>
          <CharString index="27">
            491 callgsubr
            -66 callsubr
            return
          </CharString>
          <CharString index="28">
            vlineto
            -78 callgsubr
            return
          </CharString>
          <CharString index="29">
            -58 -24 526 callgsubr
            22 29 58 vhcurveto
            13 hlineto
            12 4 4 77 callgsubr
            -18 hlineto
            -93 -49 605 callsubr
            -87 46 -56 89 vhcurveto
            return
          </CharString>
          <CharString index="30">
            407 hmoveto
            10 4 5 9 hvcurveto
            36 173 callsubr
            -245 hlineto
            -7 -3 3 6 hvcurveto
            213 8 callsubr
            214 113 callsubr
            -214 hlineto
            -7 -3 3 6 hvcurveto
            202 8 callsubr
            245 hlineto
            19 callsubr
            return
          </CharString>
          <CharString index="31">
            -5 -10 hvcurveto
            return
          </CharString>
          <CharString index="32">
            -66 -39 -42 223 callsubr
            -21 hvcurveto
            -13 4 8 -7 14 hhcurveto
            29 hlineto
            8 5 5 187 callgsubr
            8 hvcurveto
            -5 15 96 callsubr
            return
          </CharString>
          <CharString index="33">
            -11 -4 -67 callgsubr
            82 52 48 95 hvcurveto
            74 vlineto
            38 return
          </CharString>
          <CharString index="34">
            535 callgsubr
            -3 1 -2 1 -3 hvcurveto
            88 -137 51 callsubr
            5 6 7 212 callgsubr
            3 hvcurveto
            return
          </CharString>
          <CharString index="35">
            -69 -37 -67 callsubr
            return
          </CharString>
          <CharString index="36">
            rmoveto
            -61 -32 -20 -44 vhcurveto
            -17 hlineto
            -45 -31 20 61 hvcurveto
            242 385 callsubr
            7 vhcurveto
            149 -100 callgsubr
            -312 -72 callgsubr
            65 -26 callsubr
            return
          </CharString>
          <CharString index="37">
            -11 -85 callgsubr
            11 vhcurveto
            return
          </CharString>
          <CharString index="38">
            52 callgsubr
            -32 -32 -59 vhcurveto
            -38 hlineto
            -11 -4 80 callgsubr
            46 hlineto
            94 56 56 93 hvcurveto
            87 vlineto
            94 -57 55 -93 vhcurveto
            -30 hlineto
            -46 -34 -17 -27 -14 hvcurveto
            -4 return
          </CharString>
          <CharString index="39">
            30 vlineto
            12 331 callsubr
            -35 468 callgsubr
            -12 hvcurveto
            -30 vlineto
            -60 -32 -28 -58 vhcurveto
            -67 hlineto
            -59 -31 30 60 hvcurveto
            100 vlineto
            60 31 30 59 vhcurveto
            134 hlineto
            19 16 11 23 hvcurveto
            141 vlineto
            6 return
          </CharString>
          <CharString index="40">
            -44 -78 vhcurveto
            -63 hlineto
            -75 -38 -39 callgsubr
            return
          </CharString>
          <CharString index="41">
            30 hlineto
            46 32 -22 callgsubr
            38 -12 callgsubr
            return
          </CharString>
          <CharString index="42">
            -12 5 -13 callgsubr
            38 350 callsubr
            86 231 callsubr
            return
          </CharString>
          <CharString index="43">
            -52 callgsubr
            -64 -25 callsubr
            return
          </CharString>
          <CharString index="44">
            5 callsubr
            -45 -32 callsubr
            hvcurveto
            -340 vlineto
            144 callsubr
            345 vlineto
            -75 callgsubr
            -348 261 callsubr
            return
          </CharString>
          <CharString index="45">
            -100 callgsubr
            -315 vlineto
            -74 callgsubr
            return
          </CharString>
          <CharString index="46">
            -12 -85 callgsubr
            12 vhcurveto
            return
          </CharString>
          <CharString index="47">
            vlineto
            -68 callgsubr
            return
          </CharString>
          <CharString index="48">
            21 15 10 28 41 vvcurveto
            137 vlineto
            6 177 callgsubr
            return
          </CharString>
          <CharString index="49">
            365 156 rmoveto
            -58 -32 -34 -61 vhcurveto
            -57 50 callsubr
            -106 -437 -2 callgsubr
            -217 -42 callgsubr
            return
          </CharString>
          <CharString index="50">
            -5 -34 callgsubr
            5 return
          </CharString>
          <CharString index="51">
            30 vlineto
            10 return
          </CharString>
          <CharString index="52">
            3 callsubr
            30 52 callsubr
            return
          </CharString>
          <CharString index="53">
            23 492 callsubr
            -28 30 56 hvcurveto
            210 vlineto
            56 28 30 56 vhcurveto
            70 hlineto
            56 28 -30 -56 hvcurveto
            -210 vlineto
            -56 -28 -30 -56 vhcurveto
            8 -64 rmoveto
            558 callsubr
            214 300 callsubr
            -86 -42 callgsubr
            return
          </CharString>
          <CharString index="54">
            532 callsubr
            -41 callsubr
            return
          </CharString>
          <CharString index="55">
            317 rmoveto
            -7 -3 3 6 hvcurveto
            244 8 callsubr
            151 hlineto
            57 29 -31 -56 hvcurveto
            -89 vlineto
            -56 -29 -30 -57 vhcurveto
            -175 -317 rmoveto
            24 callsubr
            233 8 callsubr
            132 hlineto
            112 -242 rlineto
            -11 6 5 -3 14 hhcurveto
            45 hlineto
            9 7 5 11 -6 hvcurveto
            -116 243 rlineto
            4 vlineto
            63 16 39 50 75 vvcurveto
            91 vlineto
            92 -57 56 -92 vhcurveto
            -230 6 callsubr
            return
          </CharString>
          <CharString index="56">
            15 callsubr
            -12 hlineto
            return
          </CharString>
          <CharString index="57">
            3 callsubr
            32 vlineto
            return
          </CharString>
          <CharString index="58">
            325 callsubr
            -26 -82 callgsubr
            return
          </CharString>
          <CharString index="59">
            vlineto
            -30 callsubr
            return
          </CharString>
          <CharString index="60">
            hvcurveto
            -31 -48 callsubr
            return
          </CharString>
          <CharString index="61">
            360 callsubr
            3 5 10 hvcurveto
            30 -36 callsubr
            return
          </CharString>
          <CharString index="62">
            8 -56 callgsubr
            return
          </CharString>
          <CharString index="63">
            388 callsubr
            -59 vhcurveto
            -135 hlineto
            -58 -24 23 57 hvcurveto
            34 vlineto
            49 23 26 51 vhcurveto
            34 38 callgsubr
            199 377 callsubr
            -106 451 callsubr
            -3 -6 vhcurveto
            1 -10 -10 1 -12 hhcurveto
            return
          </CharString>
          <CharString index="64">
            hlineto
            -30 callgsubr
            return
          </CharString>
          <CharString index="65">
            -84 vlineto
            341 callsubr
            27 hlineto
            -85 -88 rlineto
            -3 -3 -2 -3 -4 472 callsubr
            10 466 callgsubr
            8 6 67 72 43 47 8 8 rcurveline
            -92 callsubr
            endchar
          </CharString>
          <CharString index="66">
            25 hlineto
            48 16 callsubr
            37 hlineto
            10 5 5 11 hvcurveto
            return
          </CharString>
          <CharString index="67">
            hlineto
            54 41 20 34 17 45 callsubr
            return
          </CharString>
          <CharString index="68">
            70 187 callsubr
            return
          </CharString>
          <CharString index="69">
            rlineto
            -6 3 154 callgsubr
            return
          </CharString>
          <CharString index="70">
            hlineto
            -45 callsubr
            return
          </CharString>
          <CharString index="71">
            vlineto
            -11 callsubr
            return
          </CharString>
          <CharString index="72">
            -82 callgsubr
            72 -101 callsubr
            endchar
          </CharString>
          <CharString index="73" raw="1">
            f78a0a95 870b  
          </CharString>
          <CharString index="74">
            -60 -30 219 callsubr
            14 2 12 3 11 vhcurveto
            202 157 callgsubr
            -265 42 callsubr
            return
          </CharString>
          <CharString index="75">
            hlineto
            13 callsubr
            return
          </CharString>
          <CharString index="76">
            -83 callgsubr
            144 hlineto
            8 return
          </CharString>
          <CharString index="77">
            -10 4 callgsubr
            return
          </CharString>
          <CharString index="78">
            88 446 rmoveto
            7 3 -3 -6 hvcurveto
            -291 vlineto
            -93 60 -53 91 vhcurveto
            48 hlineto
            11 4 4 9 hvcurveto
            37 193 callsubr
            -39 hlineto
            -56 -32 29 56 hvcurveto
            288 vlineto
            492 callgsubr
            106 hlineto
            11 4 4 9 hvcurveto
            37 193 callsubr
            -106 hlineto
            -8 -3 3 6 hvcurveto
            86 vlineto
            10 -4 4 -9 vhcurveto
            -45 201 callgsubr
            -86 vlineto
            -6 257 callsubr
            -55 207 callgsubr
            -9 3 -4 11 vhcurveto
            return
          </CharString>
          <CharString index="79">
            326 callgsubr
            -203 4 hlineto
            2 callsubr
            return
          </CharString>
          <CharString index="80">
            -34 -17 -27 -13 hvcurveto
            -4 122 7 callsubr
            return
          </CharString>
          <CharString index="81">
            -37 callsubr
            -240 vlineto
            -98 56 -46 85 vhcurveto
            145 callgsubr
            240 385 callsubr
            6 vhcurveto
            return
          </CharString>
          <CharString index="82">
            hlineto
            -12 -6 -7 -10 hvcurveto
            return
          </CharString>
          <CharString index="83">
            6 3 4 return
          </CharString>
          <CharString index="84">
            -29 32 59 hvcurveto
            83 45 callgsubr
            return
          </CharString>
          <CharString index="85">
            65 callsubr
            -24 350 callgsubr
            82 hlineto
            46 22 -14 -46 hvcurveto
            -35 vlineto
            -45 -24 -16 -44 vhcurveto
            -75 hlineto
            -50 -26 293 callsubr
            55 -32 81 vhcurveto
            89 hlineto
            77 50 40 76 hvcurveto
            47 vlineto
            75 -47 35 -81 vhcurveto
            -85 hlineto
            -47 -20 13 45 hvcurveto
            13 286 callsubr
          </CharString>
          <CharString index="86">
            vlineto
            -51 callsubr
            return
          </CharString>
          <CharString index="87">
            135 callsubr
            5 -4 9 vhcurveto
            39 hlineto
            10 135 callgsubr
            -100 vhcurveto
            endchar
          </CharString>
          <CharString index="88">
            -94 62 -77 112 vhcurveto
            60 callgsubr
            return
          </CharString>
          <CharString index="89">
            vlineto
            -11 5 -13 callgsubr
            38 241 callsubr
            3 5 10 hvcurveto
            30 -36 callsubr
            return
          </CharString>
          <CharString index="90">
            -79 callgsubr
            -246 164 callsubr
            return
          </CharString>
          <CharString index="91">
            8 -93 callsubr
            return
          </CharString>
          <CharString index="92">
            385 callsubr
            7 -46 callsubr
            return
          </CharString>
          <CharString index="93">
            vlineto
            -24 callgsubr
            return
          </CharString>
          <CharString index="94">
            -62 callsubr
            -94 -55 477 callsubr
            return
          </CharString>
          <CharString index="95">
            rmoveto
            -58 -27 -31 -57 vhcurveto
            -7 hlineto
            -57 -27 31 58 hvcurveto
            104 vlineto
            59 624 callsubr
            7 622 callgsubr
            -59 hvcurveto
            -241 -104 rmoveto
            -58 -27 -31 -57 vhcurveto
            -7 hlineto
            -57 -27 31 58 hvcurveto
            104 vlineto
            59 624 callsubr
            7 622 callgsubr
            -59 hvcurveto
            -303 330 -95 callgsubr
            419 -100 callgsubr
            -102 vlineto
            -6 -2 -3 -7 -2 vhcurveto
            -38 -7 -28 -17 -18 -27 rrcurveto
            35 -22 -39 19 -56 249 callsubr
            return
          </CharString>
          <CharString index="96">
            10 47 callsubr
            return
          </CharString>
          <CharString index="97">
            -44 callsubr
            -385 197 23 callsubr
            -89 53 -46 89 -1 vhcurveto
            -85 -113 -4 callgsubr
            -85 113 rlineto
            93 49 callsubr
          </CharString>
          <CharString index="98">
            rmoveto
            368 callgsubr
            -124 hlineto
            -93 -53 -55 -95 hvcurveto
            return
          </CharString>
          <CharString index="99">
            -76 callsubr
            -29 vlineto
            return
          </CharString>
          <CharString index="100">
            -3 623 187 callsubr
            return
          </CharString>
          <CharString index="101">
            vlineto
            83 -56 37 -75 -74 480 callsubr
            -49 412 callgsubr
            43 381 callgsubr
            39 24 -19 -42 vhcurveto
            return
          </CharString>
          <CharString index="102">
            -50 callsubr
            9 -5 6 -11 vhcurveto
            return
          </CharString>
          <CharString index="103">
            -54 -31 -30 -56 vhcurveto
            -32 hlineto
            -59 -33 32 59 hvcurveto
            81 299 callsubr
            38 hlineto
            11 4 5 10 hvcurveto
            31 158 callgsubr
            -46 hlineto
            -94 -56 -56 -93 hvcurveto
            return
          </CharString>
          <CharString index="104">
            142 callgsubr
            37 279 callgsubr
            return
          </CharString>
          <CharString index="105">
            hhcurveto
            10 callsubr
            return
          </CharString>
          <CharString index="106">
            5 -3 9 vhcurveto
            return
          </CharString>
          <CharString index="107">
            16 44 14 rmoveto
            153 callsubr
            377 hlineto
            11 3 6 9 hvcurveto
            40 326 callsubr
            -306 4 hlineto
            302 481 rlineto
            6 9 2 7 12 vvcurveto
            48 163 callsubr
            -354 hlineto
            -10 467 callsubr
            -40 vlineto
            -9 4 -5 10 vhcurveto
            289 -4 hlineto
            -310 -495 rlineto
            -6 -8 0 -8 -10 vvcurveto
            return
          </CharString>
          <CharString index="108">
            -47 -27 callsubr
            return
          </CharString>
          <CharString index="109">
            -59 callsubr
            162 -18 callgsubr
            return
          </CharString>
          <CharString index="110">
            hlineto
            49 callgsubr
            return
          </CharString>
          <CharString index="111">
            86 -6 -52 40 -84 561 callgsubr
            -6 -9 hvcurveto
            -33 251 callsubr
            -66 hvcurveto
            -83 288 callgsubr
            -5 -9 hvcurveto
            -33 279 callsubr
            93 hlineto
            82 54 40 85 6 hvcurveto
            return
          </CharString>
          <CharString index="112">
            51 29 callgsubr
            45 86 callgsubr
            return
          </CharString>
          <CharString index="113">
            -32 callsubr
            hvcurveto
            -615 -14 callsubr
            return
          </CharString>
          <CharString index="114">
            504 callgsubr
            7 vhcurveto
            return
          </CharString>
          <CharString index="115">
            vlineto
            6 3 3 7 vhcurveto
            return
          </CharString>
          <CharString index="116">
            50 562 callsubr
            -80 607 callsubr
            439 callgsubr
            47 vhcurveto
            150 hlineto
            19 16 11 23 hvcurveto
            117 385 callsubr
            7 vhcurveto
            return
          </CharString>
          <CharString index="117">
            -30 -1 callgsubr
            return
          </CharString>
          <CharString index="118">
            -11 -5 -5 -9 -47 callsubr
            return
          </CharString>
          <CharString index="119">
            64 325 576 callsubr
            168 vlineto
            14 -8 7 -12 vhcurveto
            -161 207 callgsubr
            -9 3 -4 11 vhcurveto
            99 hlineto
            7 2 -3 -7 hvcurveto
            -112 vlineto
            -56 -27 -31 -56 vhcurveto
            -91 156 callgsubr
            91 hlineto
            56 566 callgsubr
            -38 vlineto
            -11 243 callgsubr
            11 hvcurveto
            41 301 callgsubr
            -91 vhcurveto
            -108 hlineto
            -92 407 callsubr
            -347 vlineto
            -93 56 -55 92 vhcurveto
            return
          </CharString>
          <CharString index="120">
            -9 -5 -3 -11 return
          </CharString>
          <CharString index="121">
            5 11 hvcurveto
            return
          </CharString>
          <CharString index="122">
            -103 56 -51 callgsubr
            return
          </CharString>
          <CharString index="123">
            32 464 callsubr
            352 callgsubr
            5 -13 callgsubr
            return
          </CharString>
          <CharString index="124">
            rmoveto
            -14 12 12 8 7 14 3 18 rlinecurve
            18 -15 rlineto
            -231 vmoveto
            -60 -29 -33 -59 vhcurveto
            -86 hlineto
            -59 -29 33 60 hvcurveto
            46 vlineto
            60 21 31 59 vhcurveto
            101 hlineto
            60 21 -31 -60 hvcurveto
            -279 356 rmoveto
            29 32 16 -13 rlineto
            -1 hlineto
            -7 -3 -86 callgsubr
            -37 vlineto
            -146 107 -10 callgsubr
            68 402 callgsubr
            18 -33 31 586 callsubr
            -45 -22 -19 -41 -64 vvcurveto
            -51 vlineto
            return
          </CharString>
          <CharString index="125">
            20 callgsubr
            -12 hlineto
            return
          </CharString>
          <CharString index="126">
            10 4 5 9 hvcurveto
            36 173 callsubr
            -314 6 callsubr
            return
          </CharString>
          <CharString index="127">
            120 callgsubr
            208 vlineto
            56 27 31 56 vhcurveto
            return
          </CharString>
          <CharString index="128">
            27 -22 13 vhcurveto
            4 return
          </CharString>
          <CharString index="129">
            -10 -47 callsubr
            return
          </CharString>
          <CharString index="130">
            rmoveto
            -11 277 callgsubr
            11 -1 vhcurveto
            107 -4 hlineto
            -24 -12 -11 -24 -38 vvcurveto
            -72 230 callgsubr
            vlineto
            -43 -14 -18 -35 -52 vvcurveto
            -41 vlineto
            return
          </CharString>
          <CharString index="131">
            9 138 callsubr
            return
          </CharString>
          <CharString index="132">
            60 callsubr
            -23 -35 vvcurveto
            return
          </CharString>
          <CharString index="133">
            131 callgsubr
            89 hvcurveto
            return
          </CharString>
          <CharString index="134">
            46 20 -14 -41 hvcurveto
            -41 vlineto
            -42 -18 -17 -48 vhcurveto
            -83 hlineto
            -48 -25 20 49 hvcurveto
            16 349 callsubr
            -36 35 callsubr
            -189 vlineto
            533 callgsubr
            36 478 callgsubr
            77 4 vlineto
            -24 14 28 -9 36 hhcurveto
            81 hlineto
            81 46 41 76 hvcurveto
            47 446 callsubr
            -93 hlineto
            -46 -20 14 42 hvcurveto
            10 vlineto
            42 18 16 48 vhcurveto
            156 379 callgsubr
            111 vlineto
            return
          </CharString>
          <CharString index="135">
            120 callgsubr
            341 vlineto
            56 27 31 56 vhcurveto
            return
          </CharString>
          <CharString index="136">
            -154 207 callsubr
            331 vlineto
            61 32 40 61 vhcurveto
            54 hlineto
            10 -1 3 5 9 vvcurveto
            37 386 callgsubr
            -10 vhcurveto
            -39 hlineto
            -53 -39 -27 -27 -12 hvcurveto
            -4 40 40 callsubr
            return
          </CharString>
          <CharString index="137">
            vlineto
            65 27 26 54 51 return
          </CharString>
          <CharString index="138">
            5 14 callsubr
            return
          </CharString>
          <CharString index="139">
            -50 236 115 callsubr
            556 8 callsubr
            136 hlineto
            11 4 5 9 hvcurveto
            36 193 callsubr
            -365 hlineto
            -11 467 callsubr
            -36 283 callgsubr
            136 hlineto
            8 2 -3 -6 hvcurveto
            -556 -14 callsubr
            return
          </CharString>
          <CharString index="140">
            -22 -63 vhcurveto
            -80 493 callsubr
            10 -50 callgsubr
            return
          </CharString>
          <CharString index="141">
            -23 7 callgsubr
            return
          </CharString>
          <CharString index="142">
            hlineto
            -10 232 callgsubr
            return
          </CharString>
          <CharString index="143">
            -14 110 -157 rmoveto
            112 38 83 94 28 hvcurveto
            149 475 rlineto
            10 3 -5 5 -10 hhcurveto
            -46 hlineto
            -8 -6 -4 -10 -2 hvcurveto
            -129 -412 rlineto
            -4 hlineto
            -129 412 rlineto
            11 -3 -5 3 -9 hhcurveto
            -48 hlineto
            -9 -4 -4 -10 3 hvcurveto
            147 -455 rlineto
            -9 3 4 -5 10 hhcurveto
            29 hlineto
            -65 -21 -19 -54 -88 hhcurveto
            -25 207 callgsubr
            604 callsubr
            return
          </CharString>
          <CharString index="144">
            29 16 hvcurveto
            4 return
          </CharString>
          <CharString index="145">
            31 58 hvcurveto
            232 385 callsubr
            return
          </CharString>
          <CharString index="146">
            128 -16 callgsubr
            return
          </CharString>
          <CharString index="147">
            55 callsubr
            -482 -14 callsubr
            return
          </CharString>
          <CharString index="148">
            342 callgsubr
            185 vlineto
            208 -233 rlineto
            -22 -21 -26 -18 -36 hhcurveto
            return
          </CharString>
          <CharString index="149">
            481 -95 callgsubr
            return
          </CharString>
          <CharString index="150">
            -66 callgsubr
            -162 244 rlineto
            return
          </CharString>
          <CharString index="151">
            54 -101 callsubr
            -60 hlineto
            return
          </CharString>
          <CharString index="152">
            445 callgsubr
            6 -4 return
          </CharString>
          <CharString index="153">
            305 callsubr
            -207 vlineto
            417 callsubr
            144 181 callgsubr
            return
          </CharString>
          <CharString index="154">
            -3 5 -12 vhcurveto
            return
          </CharString>
          <CharString index="155">
            19 63 callgsubr
            return
          </CharString>
          <CharString index="156">
            49 64 80 hvcurveto
            114 vlineto
            48 -14 35 -28 21 vhcurveto
            12 10 9 18 559 callgsubr
            4 3 8 vhcurveto
            77 hlineto
            11 1 4 4 11 vvcurveto
            520 callgsubr
            endchar
          </CharString>
          <CharString index="157">
            34 callgsubr
            140 174 callgsubr
            return
          </CharString>
          <CharString index="158">
            rlineto
            -7 4 6 -5 220 callsubr
            8 return
          </CharString>
          <CharString index="159">
            vlineto
            9 36 callgsubr
            return
          </CharString>
          <CharString index="160">
            rmoveto
            -54 -27 27 58 hvcurveto
            91 vlineto
            213 -175 rlineto
            -1 -2 -2 0 -2 hhcurveto
            6 225 403 callgsubr
            -165 vlineto
            -214 175 rlineto
            2 hlineto
            -151 60 -10 callgsubr
            65 402 callgsubr
            20 -33 32 586 callsubr
            -41 -19 -23 -44 -64 vvcurveto
            -55 vlineto
            return
          </CharString>
          <CharString index="161">
            rmoveto
            11 -5 3 -9 vhcurveto
            -45 6 callsubr
            45 hlineto
            9 5 3 11 hvcurveto
            return
          </CharString>
          <CharString index="162">
            hlineto
            -75 callgsubr
            return
          </CharString>
          <CharString index="163">
            hhcurveto
            -95 263 callsubr
            25 -100 callsubr
            -495 -62 callgsubr
            160 162 callsubr
            -50 17 -30 43 -15 vhcurveto
            -4 vlineto
            202 callsubr
            -37 vlineto
            -90 52 -48 89 vhcurveto
            107 hlineto
            return
          </CharString>
          <CharString index="164">
            -84 callsubr
            65 -26 callsubr
            -86 hmoveto
            -97 callsubr
            -242 vlineto
            -61 -32 -20 -44 vhcurveto
            -17 hlineto
            -45 -31 20 61 hvcurveto
            242 385 callsubr
            7 vhcurveto
            endchar
          </CharString>
          <CharString index="165">
            -10 -4 327 callsubr
            4 547 callgsubr
            -5 4 -9 vhcurveto
            return
          </CharString>
          <CharString index="166">
            74 14 rmoveto
            87 callsubr
            10 4 59 callgsubr
            -46 hlineto
            -9 -4 -3 -11 hvcurveto
            return
          </CharString>
          <CharString index="167">
            -81 callsubr
            98 -4 hlineto
            -23 -13 -9 return
          </CharString>
          <CharString index="168">
            137 callgsubr
            -8 vhcurveto
            -43 hlineto
            return
          </CharString>
          <CharString index="169">
            -18 callsubr
            endchar
          </CharString>
          <CharString index="170">
            rmoveto
            42 24 -15 -24 13 hvcurveto
            -7 6 2 -7 8 hhcurveto
            4 2 1 4 6 hvcurveto
            20 15 rlineto
            7 4 3 5 6 vvcurveto
            5 -2 5 -2 3 vhcurveto
            43 -21 -43 23 -59 470 callgsubr
            234 -100 callsubr
            -658 hlineto
            128 callgsubr
            -53 callsubr
            309 351 callsubr
            return
          </CharString>
          <CharString index="171">
            hlineto
            -57 -25 526 callgsubr
            23 29 58 vhcurveto
            13 hlineto
            11 5 4 10 hvcurveto
            31 151 callsubr
            -19 hlineto
            -93 -48 605 callsubr
            return
          </CharString>
          <CharString index="172">
            143 callsubr
            -79 159 callsubr
            -36 -76 hvcurveto
            return
          </CharString>
          <CharString index="173">
            223 callsubr
            -22 98 callgsubr
            return
          </CharString>
          <CharString index="174">
            -6 -4 83 callgsubr
            return
          </CharString>
          <CharString index="175">
            -54 -30 -37 -62 vhcurveto
            -35 hlineto
            -61 -29 32 59 hvcurveto
            83 299 callsubr
            44 -5 callsubr
            -54 hlineto
            return
          </CharString>
          <CharString index="176">
            12 callgsubr
            -124 hlineto
            -93 -53 -55 -95 hvcurveto
            return
          </CharString>
          <CharString index="177">
            0 -26 -14 -41 -41 vhcurveto
            -58 -58 70 callgsubr
            43 hlineto
            9 396 callsubr
            return
          </CharString>
          <CharString index="178">
            rmoveto
            -7 -3 -3 -7 hvcurveto
            -27 vlineto
            -6 3 -3 7 vhcurveto
            22 hlineto
            36 20 -11 -34 hvcurveto
            -6 vlineto
            -39 -18 -13 -40 vhcurveto
            -7 hlineto
            -32 -30 6 45 hvcurveto
            12 vlineto
            8 -3 3 -6 vhcurveto
            -32 hlineto
            -6 -4 -3 -8 hvcurveto
            -18 vlineto
            -68 46 -22 58 vhcurveto
            24 hlineto
            68 33 31 62 hvcurveto
            15 vlineto
            35 -16 23 -32 6 vhcurveto
            34 9 14 27 29 vvcurveto
            16 vlineto
            57 -33 33 -70 vhcurveto
            -24 hlineto
            -70 -32 -32 -58 hvcurveto
            -21 vlineto
            -7 4 -3 6 vhcurveto
            32 hlineto
            6 3 3 7 hvcurveto
            15 vlineto
            35 13 16 47 vhcurveto
            8 hlineto
            47 12 -19 -32 hvcurveto
            -8 vlineto
            -33 -14 -12 -42 vhcurveto
            endchar
          </CharString>
          <CharString index="179">
            19 callgsubr
            135 -43 callsubr
            return
          </CharString>
          <CharString index="180">
            382 callgsubr
            48 70 vlineto
            91 54 42 95 hvcurveto
            57 -6 callsubr
            -53 vlineto
            -55 -27 -24 340 callgsubr
            -76 callsubr
            return
          </CharString>
          <CharString index="181">
            -30 -55 vhcurveto
            -32 hlineto
            -59 -33 32 59 hvcurveto
            81 124 callsubr
            38 3 callsubr
            31 151 callsubr
            -46 hlineto
            return
          </CharString>
          <CharString index="182">
            vhcurveto
            -90 -40 callgsubr
            return
          </CharString>
          <CharString index="183">
            rmoveto
            19 callgsubr
            return
          </CharString>
          <CharString index="184">
            100 callsubr
            -6 return
          </CharString>
          <CharString index="185">
            479 callgsubr
            -56 -35 114 callsubr
            return
          </CharString>
          <CharString index="186">
            vlineto
            58 29 32 55 vhcurveto
            60 -5 callsubr
            return
          </CharString>
          <CharString index="187">
            416 callsubr
            -515 hlineto
            -12 -4 -5 -10 hvcurveto
            -30 vlineto
            -10 4 -5 12 vhcurveto
            321 hlineto
            7 2 -4 -6 hvcurveto
            -48 vlineto
            -52 -24 -13 -40 vhcurveto
            -55 hlineto
            -93 -57 -57 -94 hvcurveto
            284 callsubr
            -119 -185 rmoveto
            58 29 -34 -57 hvcurveto
            -97 vlineto
            106 callsubr
            endchar
          </CharString>
          <CharString index="188">
            hlineto
            -7 -4 -2 -6 -3 hvcurveto
            -47 128 callsubr
            465 callgsubr
            return
          </CharString>
          <CharString index="189">
            5 23 hhcurveto
            55 -100 callsubr
            -61 hlineto
            return
          </CharString>
          <CharString index="190">
            268 rmoveto
            -69 -38 -67 callsubr
            -13 27 -22 13 vhcurveto
            4 167 vlineto
            8 3 -4 -6 hvcurveto
            return
          </CharString>
          <CharString index="191">
            vlineto
            112 callgsubr
            return
          </CharString>
          <CharString index="192">
            rmoveto
            6 8 3 5 6 vvcurveto
            6 -2 2 -7 5 vhcurveto
            -15 12 rlineto
            3 -4 -3 1 -3 hhcurveto
            -7 -4 -6 -6 -5 hvcurveto
            -32 -23 -23 -25 -39 hhcurveto
            -4 64 callsubr
            -80 40 -53 77 vhcurveto
            6 hlineto
            13 9 3 0 hvcurveto
            -4 vlineto
            -1 -32 -27 -43 -35 hvcurveto
            153 callgsubr
            9 hvcurveto
            return
          </CharString>
          <CharString index="193">
            hlineto
            11 4 201 callsubr
            -4 6 -11 vhcurveto
            return
          </CharString>
          <CharString index="194">
            -24 callgsubr
            45 hlineto
            return
          </CharString>
          <CharString index="195">
            -91 -46 -54 -93 hvcurveto
            -37 vlineto
            -6 257 callsubr
            -59 hlineto
            -11 534 callgsubr
            -37 116 callsubr
            59 174 callgsubr
            -423 -14 callsubr
            44 hlineto
            9 6 3 11 hvcurveto
            423 vlineto
            6 2 3 7 vhcurveto
            return
          </CharString>
          <CharString index="196">
            235 callsubr
            -2 5 -8 hhcurveto
            -34 81 callsubr
            63 -107 rlineto
            -7 5 6 -3 10 hhcurveto
            endchar
          </CharString>
          <CharString index="197">
            116 vlineto
            63 -35 552 callsubr
            11 23 38 vvcurveto
            59 vlineto
            6 177 callgsubr
            return
          </CharString>
          <CharString index="198">
            77 callsubr
            11 vhcurveto
            return
          </CharString>
          <CharString index="199">
            283 callsubr
            144 82 callgsubr
            return
          </CharString>
          <CharString index="200">
            -477 -74 623 rmoveto
            -7 -1 4 5 hvcurveto
            47 vlineto
            101 31 40 57 vhcurveto
            18 291 callgsubr
            -2 0 -26 1 -2 hvcurveto
            2 -86 41 -74 15 -34 -3 -1 rcurveline
            411 callsubr
            59 -87 47 -67 45 -56 44 -43 rlinecurve
            70 hlineto
            return
          </CharString>
          <CharString index="201">
            47 36 32 44 75 vvcurveto
            94 -45 43 -97 -101 -45 -43 -92 -78 43 -45 50 -33 vhcurveto
            -127 -77 rlineto
            -5 -3 -2 -3 -4 vvcurveto
            -3 1 -3 2 -3 vhcurveto
            25 -27 rlineto
            -4 3 4 -1 6 hhcurveto
            3 5 2 2 3 hvcurveto
            140 86 return
          </CharString>
          <CharString index="202">
            vlineto
            16 callgsubr
            return
          </CharString>
          <CharString index="203">
            -4 16 18 138 callgsubr
            return
          </CharString>
          <CharString index="204">
            hlineto
            101 callsubr
            return
          </CharString>
          <CharString index="205">
            -48 vlineto
            -11 5 -13 callgsubr
            37 hlineto
            10 5 4 11 hvcurveto
            45 vlineto
            59 31 24 59 vhcurveto
            39 hlineto
            return
          </CharString>
          <CharString index="206">
            hlineto
            10 -96 callsubr
            -10 vhcurveto
            endchar
          </CharString>
          <CharString index="207">
            120 callsubr
            4 return
          </CharString>
          <CharString index="208">
            -106 callgsubr
            314 85 callgsubr
            return
          </CharString>
          <CharString index="209">
            rmoveto
            28 callsubr
            return
          </CharString>
          <CharString index="210">
            -93 -53 -55 -95 hvcurveto
            -84 vlineto
            341 callsubr
            63 hlineto
            36 28 10 24 14 hvcurveto
            -92 callsubr
            return
          </CharString>
          <CharString index="211">
            rmoveto
            -80 -49 -36 -76 hvcurveto
            -12 vlineto
            -78 43 -37 86 vhcurveto
            70 hlineto
            49 518 callgsubr
            -20 -16 -48 vhcurveto
            -61 406 callgsubr
            19 205 callsubr
            -212 vlineto
            -12 5 -13 callgsubr
            38 hlineto
            9 6 4 12 hvcurveto
            97 4 vlineto
            -24 14 27 457 callgsubr
            -46 -20 400 callgsubr
            return
          </CharString>
          <CharString index="212">
            240 callgsubr
            31 hlineto
            72 49 119 callsubr
            66 -104 callgsubr
            -344 -84 callsubr
            190 -25 callgsubr
            endchar
          </CharString>
          <CharString index="213">
            -59 -31 -33 -59 vhcurveto
            -68 hlineto
            -59 -31 33 59 hvcurveto
            97 331 callgsubr
            59 vhcurveto
            return
          </CharString>
          <CharString index="214">
            vhcurveto
            -39 hlineto
            -45 -24 25 45 hvcurveto
            64 vlineto
            51 21 26 50 vhcurveto
            return
          </CharString>
          <CharString index="215">
            369 156 rmoveto
            -58 -33 -34 -60 vhcurveto
            -61 34 callgsubr
            61 hlineto
            60 33 -34 -58 hvcurveto
            -107 -354 rmoveto
            52 96 callgsubr
            4 400 callsubr
            675 vlineto
            11 -4 236 callsubr
            -3 -11 hvcurveto
            -232 -4 vlineto
            32 -15 -36 21 -52 hhcurveto
            -59 hlineto
            -91 -53 -55 -93 hvcurveto
            -214 261 callsubr
            return
          </CharString>
          <CharString index="216">
            43 callgsubr
            446 callgsubr
            return
          </CharString>
          <CharString index="217">
            -10 -4 525 callgsubr
            4 -4 521 callsubr
            4 11 hvcurveto
            42 vlineto
            11 427 callgsubr
            return
          </CharString>
          <CharString index="218">
            -7 222 callgsubr
            return
          </CharString>
          <CharString index="219">
            -100 callgsubr
            -93 179 callsubr
            -110 hlineto
            return
          </CharString>
          <CharString index="220">
            hlineto
            10 4 5 9 hvcurveto
            36 173 callsubr
            return
          </CharString>
          <CharString index="221">
            136 callgsubr
            -58 hhcurveto
            return
          </CharString>
          <CharString index="222">
            hmoveto
            24 callsubr
            return
          </CharString>
          <CharString index="223">
            vlineto
            153 callsubr
            return
          </CharString>
          <CharString index="224">
            -477 -80 886 rmoveto
            257 callgsubr
            -34 201 callgsubr
            -38 328 callsubr
            34 hlineto
            9 5 4 11 hvcurveto
            16 -158 rmoveto
            79 39 41 84 hvcurveto
            6 200 callsubr
            -75 548 callsubr
            -30 hlineto
            -11 -6 574 callsubr
          </CharString>
          <CharString index="225">
            -84 callsubr
            327 162 callsubr
            -27 5 -21 11 -16 vhcurveto
            -164 184 callsubr
            29 hlineto
            8 5 6 7 601 callgsubr
            16 -4 15 18 vvcurveto
            35 19 16 39 vhcurveto
            148 hlineto
            -14 -18 -7 -24 -30 vvcurveto
            -37 vlineto
            -90 53 -48 88 vhcurveto
            102 hlineto
            return
          </CharString>
          <CharString index="226">
            44 87 hvcurveto
            152 385 callsubr
            7 vhcurveto
            return
          </CharString>
          <CharString index="227">
            -5 175 callsubr
            return
          </CharString>
          <CharString index="228">
            4 11 hvcurveto
            52 421 callsubr
            return
          </CharString>
          <CharString index="229">
            -76 callsubr
            -114 vlineto
            -17 2 -16 4 -15 vhcurveto
            -3 -3 rlineto
            -25 -25 -26 -31 -53 hhcurveto
            -102 hlineto
            73 callsubr
            return
          </CharString>
          <CharString index="230">
            112 callsubr
            -94 -53 -55 -95 hvcurveto
            -113 vlineto
            return
          </CharString>
          <CharString index="231">
            vlineto
            59 31 32 59 vhcurveto
            return
          </CharString>
          <CharString index="232" raw="1">
            a906b9ab 9aa89b1f 8ffb0af7 271d0b
          </CharString>
          <CharString index="233">
            305 callgsubr
            -307 vlineto
            -60 -30 -39 -72 -1 vhcurveto
            -90 hlineto
            -56 -25 23 58 hvcurveto
            27 226 callsubr
            return
          </CharString>
          <CharString index="234">
            hlineto
            166 callgsubr
            return
          </CharString>
          <CharString index="235">
            114 callgsubr
            -8 return
          </CharString>
          <CharString index="236">
            hlineto
            -61 callsubr
            return
          </CharString>
          <CharString index="237">
            -7 callgsubr
            -118 hlineto
            -11 5 -5 return
          </CharString>
          <CharString index="238">
            rmoveto
            329 callsubr
            24 163 callsubr
            -201 127 callsubr
            -24 211 callgsubr
          </CharString>
          <CharString index="239">
            272 callgsubr
            -43 130 callgsubr
            59 -87 return
          </CharString>
          <CharString index="240">
            452 callgsubr
            7 -22 hvcurveto
            178 callgsubr
            return
          </CharString>
          <CharString index="241">
            -9 hvcurveto
            -32 -48 callsubr
            return
          </CharString>
          <CharString index="242">
            -22 -63 hvcurveto
            -30 vlineto
            -12 return
          </CharString>
          <CharString index="243">
            -7 -3 4 7 hvcurveto
            return
          </CharString>
          <CharString index="244">
            230 callsubr
            -52 50 return
          </CharString>
          <CharString index="245">
            5 3 11 hvcurveto
            return
          </CharString>
          <CharString index="246">
            90 callsubr
            106 84 callgsubr
          </CharString>
          <CharString index="247">
            73 callsubr
            -94 vlineto
            348 callgsubr
            108 hlineto
            return
          </CharString>
          <CharString index="248">
            276 callgsubr
            4 380 callgsubr
            -4 402 callsubr
            return
          </CharString>
          <CharString index="249">
            276 callgsubr
            5 185 callgsubr
            return
          </CharString>
          <CharString index="250">
            -95 callgsubr
            310 -100 callgsubr
            return
          </CharString>
          <CharString index="251">
            244 callgsubr
            -57 165 callgsubr
            return
          </CharString>
          <CharString index="252">
            vlineto
            176 callsubr
            return
          </CharString>
          <CharString index="253">
            rmoveto
            11 1 4 5 10 vvcurveto
            33 158 callgsubr
            -282 206 callgsubr
            49 hlineto
            47 36 -20 -66 hvcurveto
            -65 vlineto
            -60 -25 -27 -58 75 callsubr
            107 502 callgsubr
            return
          </CharString>
          <CharString index="254">
            -25 callgsubr
            -117 218 callsubr
            -306 -76 callgsubr
            -13 622 callsubr
            return
          </CharString>
          <CharString index="255">
            hlineto
            47 22 -16 -43 -44 -21 -20 -48 hvcurveto
            -67 hlineto
            -12 -4 -76 callsubr
            -48 vlineto
            -95 52 -61 113 vhcurveto
            47 hlineto
            54 39 20 34 19 hvcurveto
            4 -80 162 callgsubr
            -107 callsubr
            -12 vhcurveto
            endchar
          </CharString>
          <CharString index="256">
            hhcurveto
            -173 hmoveto
            -9 277 callsubr
            -4 2 -5 8 hhcurveto
            24 602 callsubr
            77 105 rlineto
            9 7 -4 5 -9 hhcurveto
            endchar
          </CharString>
          <CharString index="257">
            474 callsubr
            6 527 callgsubr
            2 vhcurveto
            34 95 rlineto
            8 24 6 17 24 vvcurveto
            return
          </CharString>
          <CharString index="258">
            vlineto
            208 callsubr
            return
          </CharString>
          <CharString index="259">
            -75 callgsubr
            -675 -14 callsubr
            return
          </CharString>
          <CharString index="260">
            -9 268 callsubr
            return
          </CharString>
          <CharString index="261">
            rmoveto
            106 callsubr
            73 hlineto
            58 29 -34 -57 hvcurveto
            -377 336 rmoveto
            294 callsubr
            -85 46 return
          </CharString>
          <CharString index="262">
            hlineto
            -58 -28 38 callsubr
            7 vhcurveto
            return
          </CharString>
          <CharString index="263">
            21 15 9 28 41 vvcurveto
            137 385 callsubr
            8 vhcurveto
            return
          </CharString>
          <CharString index="264">
            hlineto
            18 13 12 20 hvcurveto
            return
          </CharString>
          <CharString index="265">
            hhcurveto
            169 callsubr
            return
          </CharString>
          <CharString index="266">
            vlineto
            -7 -3 255 callgsubr
            -49 return
          </CharString>
          <CharString index="267">
            187 callsubr
            133 -100 callgsubr
            return
          </CharString>
          <CharString index="268">
            378 callgsubr
            -37 593 callgsubr
            -47 vhcurveto
            -64 180 callsubr
            81 vlineto
            59 28 32 58 vhcurveto
            161 434 callsubr
            8 vhcurveto
            73 84 callgsubr
          </CharString>
          <CharString index="269">
            -4 hlineto
            -24 339 callsubr
            return
          </CharString>
          <CharString index="270">
            311 callgsubr
            vhcurveto
            return
          </CharString>
          <CharString index="271">
            vlineto
            -89 312 callsubr
            return
          </CharString>
          <CharString index="272">
            8 -10 hhcurveto
            -28 hlineto
            -10 -6 -4 -11 -8 hvcurveto
            -54 -73 -343 -466 -54 -73 rrcurveto
            -10 -8 5 -6 10 hhcurveto
            26 hlineto
            11 6 3 12 9 hvcurveto
            return
          </CharString>
          <CharString index="273">
            -9 221 callsubr
            return
          </CharString>
          <CharString index="274">
            -43 callsubr
            -114 vlineto
            return
          </CharString>
          <CharString index="275">
            hhcurveto
            -34 568 callsubr
            -7 -5 hvcurveto
            -63 -107 rlineto
            -7 -4 2 -5 8 hhcurveto
            return
          </CharString>
          <CharString index="276">
            -34 155 callsubr
            return
          </CharString>
          <CharString index="277">
            186 callsubr
            -3 -10 hvcurveto
            return
          </CharString>
          <CharString index="278">
            -8 5 7 -3 311 callsubr
            return
          </CharString>
          <CharString index="279">
            386 callsubr
            -12 vlineto
            -60 return
          </CharString>
          <CharString index="280">
            vlineto
            219 callgsubr
            return
          </CharString>
          <CharString index="281">
            588 497 callgsubr
            -5 3 -8 vhcurveto
            -43 hlineto
            -8 221 callsubr
            -171 -101 497 callgsubr
            -4 3 -9 vhcurveto
            -43 hlineto
            -8 221 callsubr
            endchar
          </CharString>
          <CharString index="282">
            -9 hvcurveto
            -35 vlineto
            -9 return
          </CharString>
          <CharString index="283">
            -7 220 callgsubr
            return
          </CharString>
          <CharString index="284">
            vhcurveto
            132 -9 rlineto
            11 -1 3 6 9 vvcurveto
            39 vlineto
            9 -3 4 -11 -1 vhcurveto
            -133 -10 11 159 rlineto
            -36 callgsubr
            -45 hlineto
            -9 -6 -3 -11 1 hvcurveto
            11 -159 -131 10 rlineto
            -11 1 -3 -4 -9 vvcurveto
            -39 vlineto
            -9 3 -6 11 1 vhcurveto
            return
          </CharString>
          <CharString index="285">
            -31 12 -22 hvcurveto
            61 callgsubr
            return
          </CharString>
          <CharString index="286">
            vlineto
            255 callsubr
            return
          </CharString>
          <CharString index="287">
            hlineto
            -59 -29 29 60 hvcurveto
            return
          </CharString>
          <CharString index="288">
            142 callsubr
            -171 -101 142 callsubr
            endchar
          </CharString>
          <CharString index="289">
            rmoveto
            -10 5 318 callsubr
            -5 3 -8 vhcurveto
            -43 hlineto
            -8 232 callsubr
            -171 -101 rmoveto
            -10 5 318 callsubr
            -5 3 -8 vhcurveto
            -43 hlineto
            -8 232 callsubr
            endchar
          </CharString>
          <CharString index="290">
            133 133 callgsubr
            return
          </CharString>
          <CharString index="291">
            hlineto
            -66 -39 -42 -59 -23 4 -26 8 -21 377 callgsubr
            return
          </CharString>
          <CharString index="292">
            5 6 8 4 525 callsubr
            16 return
          </CharString>
          <CharString index="293">
            243 callsubr
            -51 hlineto
            -9 -4 return
          </CharString>
          <CharString index="294">
            -95 callgsubr
            124 -93 callgsubr
            return
          </CharString>
          <CharString index="295">
            hlineto
            67 callsubr
            return
          </CharString>
          <CharString index="296">
            hlineto
            9 193 callgsubr
            return
          </CharString>
          <CharString index="297">
            57 74 -30 62 hhcurveto
            30 29 6 9 22 hvcurveto
            16 6 5 6 12 vvcurveto
            31 vlineto
            7 -4 4 -6 vhcurveto
            -13 -32 -24 -45 -63 -68 30 -62 hhcurveto
            -30 -29 -6 -9 -22 hvcurveto
            -15 -6 -6 -6 -12 vvcurveto
            -31 vlineto
            -7 4 -4 7 vhcurveto
            13 32 24 44 hhcurveto
            return
          </CharString>
          <CharString index="298">
            278 callsubr
            -45 hlineto
            535 callgsubr
            -4 1 585 callsubr
            return
          </CharString>
          <CharString index="299">
            56 217 callsubr
            -55 vhcurveto
            return
          </CharString>
          <CharString index="300">
            vlineto
            9 -4 5 -11 vhcurveto
            return
          </CharString>
          <CharString index="301">
            rmoveto
            -4 -4 -2 -4 -5 297 callgsubr
            7 6 141 152 26 31 rrcurveto
            5 7 4 5 7 vvcurveto
            4 -2 4 -5 4 vhcurveto
            -12 12 rlineto
            5 -5 564 callsubr
            -6 -3 -3 -6 -6 hvcurveto
            return
          </CharString>
          <CharString index="302">
            292 callgsubr
            7 155 callgsubr
          </CharString>
          <CharString index="303">
            693 rmoveto
            7 -5 -6 3 -9 168 callsubr
            33 hlineto
            8 4 2 6 2 hvcurveto
            48 251 callgsubr
            1 5 7 -4 hvcurveto
            endchar
          </CharString>
          <CharString index="304">
            rmoveto
            244 callgsubr
            -56 hlineto
            -57 -27 30 57 hvcurveto
            181 vlineto
            56 27 31 57 vhcurveto
            139 174 callgsubr
            return
          </CharString>
          <CharString index="305">
            vlineto
            40 -14 21 callsubr
            168 405 callsubr
            return
          </CharString>
          <CharString index="306">
            238 callsubr
            472 callgsubr
            return
          </CharString>
          <CharString index="307">
            440 callsubr
            -7 -5 -14 hvcurveto
            -7 vlineto
            -49 -17 -18 -49 vhcurveto
            return
          </CharString>
          <CharString index="308">
            5 10 hvcurveto
            32 vlineto
            9 return
          </CharString>
          <CharString index="309">
            -41 -14 -19 -34 -51 vvcurveto
            return
          </CharString>
          <CharString index="310">
            249 callgsubr
            9 4 4 10 hvcurveto
            return
          </CharString>
          <CharString index="311">
            414 callgsubr
            593 349 callsubr
            -38 35 callsubr
            return
          </CharString>
          <CharString index="312">
            378 callgsubr
            -38 35 callsubr
            return
          </CharString>
          <CharString index="313">
            322 callsubr
            426 callsubr
            return
          </CharString>
          <CharString index="314">
            128 115 callsubr
            return
          </CharString>
          <CharString index="315">
            10 331 callsubr
            return
          </CharString>
          <CharString index="316">
            vvcurveto
            11 vlineto
            12 -5 5 605 callgsubr
            -5 -5 -12 hvcurveto
            -10 vlineto
            -61 -32 -27 -59 vhcurveto
            -73 hlineto
            -59 -31 30 59 hvcurveto
            43 vlineto
            59 31 30 59 vhcurveto
            139 hlineto
            19 16 11 24 115 callgsubr
            return
          </CharString>
          <CharString index="317">
            9 callsubr
            125 -100 callsubr
            return
          </CharString>
          <CharString index="318">
            vlineto
            11 -5 4 return
          </CharString>
          <CharString index="319">
            -21 vlineto
            -79 42 -32 86 vhcurveto
            245 callgsubr
            return
          </CharString>
          <CharString index="320">
            82 callgsubr
            43 625 callgsubr
            return
          </CharString>
          <CharString index="321">
            vlineto
            -60 -26 -27 168 callgsubr
            82 52 48 95 hvcurveto
            return
          </CharString>
          <CharString index="322">
            227 callsubr
            8 return
          </CharString>
          <CharString index="323">
            vhcurveto
            32 hlineto
            59 52 callgsubr
            return
          </CharString>
          <CharString index="324">
            172 callsubr
            -23 -19 return
          </CharString>
          <CharString index="325">
            vlineto
            175 callgsubr
            return
          </CharString>
          <CharString index="326">
            32 59 hvcurveto
            95 vlineto
            return
          </CharString>
          <CharString index="327">
            9 hhcurveto
            41 hlineto
            return
          </CharString>
          <CharString index="328">
            -4 -4 -10 hvcurveto
            return
          </CharString>
          <CharString index="329">
            -16 -37 -37 vhcurveto
            -52 -47 372 callgsubr
            7 5 7 7 hvcurveto
            return
          </CharString>
          <CharString index="330">
            452 callgsubr
            8 return
          </CharString>
          <CharString index="331">
            -56 -28 -31 -56 vhcurveto
            return
          </CharString>
          <CharString index="332">
            -88 -58 -47 -101 hvcurveto
            return
          </CharString>
          <CharString index="333">
            vlineto
            46 23 25 45 vhcurveto
            63 hlineto
            11 408 callgsubr
            32 362 callsubr
            -45 -23 24 45 473 callgsubr
            21 -100 callsubr
            return
          </CharString>
          <CharString index="334">
            228 callsubr
            2 -5 9 hhcurveto
            33 hlineto
            return
          </CharString>
          <CharString index="335">
            rmoveto
            -9 -8 376 callgsubr
            return
          </CharString>
          <CharString index="336">
            10 4 5 475 callsubr
            6 -10 vhcurveto
            return
          </CharString>
          <CharString index="337">
            4 12 hvcurveto
            31 vlineto
            96 return
          </CharString>
          <CharString index="338">
            vlineto
            7 3 4 return
          </CharString>
          <CharString index="339">
            -5 -4 -10 hvcurveto
            return
          </CharString>
          <CharString index="340">
            hlineto
            -237 -273 216 callgsubr
            7 4 8 6 hvcurveto
            191 228 rlineto
            16 19 4 15 34 vvcurveto
            1 vlineto
            -20 callgsubr
            endchar
          </CharString>
          <CharString index="341">
            228 callgsubr
            -8 hhcurveto
            return
          </CharString>
          <CharString index="342">
            rmoveto
            34 hlineto
            10 5 609 callsubr
            64 107 rlineto
            7 4 return
          </CharString>
          <CharString index="343">
            3 298 callsubr
            return
          </CharString>
          <CharString index="344">
            -94 58 -55 93 vhcurveto
            return
          </CharString>
          <CharString index="345">
            23 callsubr
            -90 54 -46 90 vhcurveto
            return
          </CharString>
          <CharString index="346">
            rmoveto
            7 -5 382 callsubr
            -34 hlineto
            -10 -5 -3 -7 -5 hvcurveto
            -64 -107 rlineto
            -7 -4 2 -5 8 359 callgsubr
            4 -2 7 hhcurveto
            35 hlineto
            return
          </CharString>
          <CharString index="347">
            -77 347 626 rmoveto
            10 4 -4 7 -10 hhcurveto
            -42 hlineto
            -11 -4 -5 -10 -4 hvcurveto
            -28 -73 -166 -466 -29 -73 rrcurveto
            -11 -4 6 -5 10 hhcurveto
            41 hlineto
            10 5 4 11 4 hvcurveto
            endchar
          </CharString>
          <CharString index="348">
            hlineto
            10 5 4 11 hvcurveto
            538 385 callsubr
            8 vhcurveto
            75 hlineto
            12 return
          </CharString>
          <CharString index="349">
            vhcurveto
            30 14 3 8 16 hhcurveto
            20 5 -11 -38 hvcurveto
            -27 vlineto
            -8 3 -3 return
          </CharString>
          <CharString index="350">
            rmoveto
            10 -5 3 -8 vhcurveto
            return
          </CharString>
          <CharString index="351">
            vhcurveto
            -36 hlineto
            -59 return
          </CharString>
          <CharString index="352">
            279 callgsubr
            45 -104 callgsubr
            -242 hlineto
            25 callsubr
            return
          </CharString>
          <CharString index="353">
            10 hvcurveto
            31 vlineto
            return
          </CharString>
          <CharString index="354">
            20 48 hvcurveto
            19 349 callsubr
            -37 35 callsubr
            -212 vlineto
            -12 5 -13 callgsubr
            37 350 callsubr
            97 4 vlineto
            -24 14 28 -8 36 hhcurveto
            59 hlineto
            return
          </CharString>
          <CharString index="355">
            hvcurveto
            -74 218 callsubr
            -117 hlineto
            -80 -49 -36 -77 hvcurveto
            -16 vlineto
            -78 43 -37 86 vhcurveto
            return
          </CharString>
          <CharString index="356">
            hhcurveto
            -8 hlineto
            -95 -54 -53 -97 hvcurveto
            -104 vlineto
            -97 54 -52 95 vhcurveto
            8 hlineto
            55 39 18 34 23 hvcurveto
            return
          </CharString>
          <CharString index="357">
            581 callsubr
            -38 496 callsubr
            -46 vhcurveto
            return
          </CharString>
          <CharString index="358">
            283 callgsubr
            75 hlineto
            50 35 -22 return
          </CharString>
          <CharString index="359">
            -5 -7 4 hvcurveto
            63 -107 rlineto
            -7 5 6 -3 return
          </CharString>
          <CharString index="360">
            380 callsubr
            4 hvcurveto
            return
          </CharString>
          <CharString index="361">
            -60 -29 219 callsubr
            return
          </CharString>
          <CharString index="362">
            -6 220 callgsubr
            return
          </CharString>
          <CharString index="363">
            91 330 callsubr
            return
          </CharString>
          <CharString index="364">
            -3 -3 -7 vhcurveto
            return
          </CharString>
          <CharString index="365">
            -89 vlineto
            -94 58 -55 92 vhcurveto
            35 hlineto
            46 35 309 callsubr
            9 vhcurveto
            38 -12 callgsubr
            537 385 callsubr
            8 vhcurveto
            75 hlineto
            11 return
          </CharString>
          <CharString index="366">
            -55 -28 -19 -39 347 callgsubr
            return
          </CharString>
          <CharString index="367">
            hlineto
            94 56 53 96 hvcurveto
            return
          </CharString>
          <CharString index="368">
            vlineto
            -93 53 -55 91 vhcurveto
            return
          </CharString>
          <CharString index="369">
            11 callsubr
            65 -100 callgsubr
            -367 317 callsubr
            7 vhcurveto
            return
          </CharString>
          <CharString index="370">
            hlineto
            -56 -25 24 57 hvcurveto
            33 vlineto
            46 23 24 45 vhcurveto
            62 -5 callsubr
            -62 hlineto
            -45 -23 23 46 473 callgsubr
            return
          </CharString>
          <CharString index="371">
            11 13 18 6 24 hhcurveto
            44 callsubr
            return
          </CharString>
          <CharString index="372">
            621 callgsubr
            -8 return
          </CharString>
          <CharString index="373">
            hlineto
            -66 -39 -41 223 callsubr
            -22 377 callgsubr
            28 hlineto
            9 322 callgsubr
            18 vvcurveto
            34 19 17 39 vhcurveto
            return
          </CharString>
          <CharString index="374">
            513 callgsubr
            -21 hvcurveto
            -13 5 8 -7 13 hhcurveto
            29 hlineto
            9 5 5 187 callgsubr
            8 hvcurveto
            -5 15 512 callsubr
            return
          </CharString>
          <CharString index="375">
            3 -5 11 vhcurveto
            return
          </CharString>
          <CharString index="376">
            -3 623 -9 callsubr
            return
          </CharString>
          <CharString index="377">
            -67 141 callgsubr
            -4 15 -5 475 callgsubr
            return
          </CharString>
          <CharString index="378">
            581 callsubr
            -13 vlineto
            -44 -20 -16 -46 vhcurveto
            -90 hlineto
            return
          </CharString>
          <CharString index="379">
            rmoveto
            -59 callsubr
            return
          </CharString>
          <CharString index="380">
            229 -95 callgsubr
            return
          </CharString>
          <CharString index="381">
            32 19 623 callgsubr
            -129 hlineto
            -11 5 -5 return
          </CharString>
          <CharString index="382">
            253 callgsubr
            10 return
          </CharString>
          <CharString index="383">
            364 callsubr
            5 return
          </CharString>
          <CharString index="384">
            -7 -3 -10 476 callgsubr
            return
          </CharString>
          <CharString index="385">
            rlineto
            10 -6 382 callsubr
            return
          </CharString>
          <CharString index="386">
            vlineto
            -10 3 -5 12 vhcurveto
            return
          </CharString>
          <CharString index="387">
            vlineto
            -59 426 callsubr
            return
          </CharString>
          <CharString index="388">
            vlineto
            -16 callsubr
            return
          </CharString>
          <CharString index="389">
            hlineto
            57 386 callsubr
            return
          </CharString>
          <CharString index="390">
            -6 -4 3 8 hvcurveto
            return
          </CharString>
          <CharString index="391">
            -101 511 callsubr
            59 55 93 hvcurveto
            90 callsubr
            return
          </CharString>
          <CharString index="392">
            235 65 callgsubr
            return
          </CharString>
          <CharString index="393">
            vlineto
            45 20 13 47 vhcurveto
            150 hlineto
            19 16 11 23 hvcurveto
            117 385 callsubr
            7 vhcurveto
            79 99 callsubr
          </CharString>
          <CharString index="394">
            364 callgsubr
            79 vhcurveto
            return
          </CharString>
          <CharString index="395">
            -151 328 callgsubr
            return
          </CharString>
          <CharString index="396">
            hvcurveto
            -43 vlineto
            -10 return
          </CharString>
          <CharString index="397">
            vlineto
            10 -6 5 -9 -8 vhcurveto
            -140 -128 rlineto
            -9 -8 -5 -4 -14 vvcurveto
            -26 vlineto
            -15 4 -4 10 -8 vhcurveto
            140 -128 rlineto
            9 -8 6 5 11 vvcurveto
            return
          </CharString>
          <CharString index="398">
            vlineto
            -19 callsubr
            return
          </CharString>
          <CharString index="399">
            hlineto
            -11 5 -13 callgsubr
            38 hlineto
            10 5 4 11 hvcurveto
            538 385 callsubr
            8 vhcurveto
            75 84 callgsubr
          </CharString>
          <CharString index="400">
            12 56 hvcurveto
            7 vlineto
            13 436 callgsubr
            -13 hvcurveto
            -7 vlineto
            -96 return
          </CharString>
          <CharString index="401">
            -61 callsubr
            321 423 callsubr
            return
          </CharString>
          <CharString index="402">
            -270 142 379 545 callgsubr
            -120 vlineto
            -10 4 -4 596 callgsubr
          </CharString>
          <CharString index="403">
            -86 callgsubr
            -160 218 callsubr
            -174 hlineto
            return
          </CharString>
          <CharString index="404">
            hlineto
            83 274 callgsubr
            return
          </CharString>
          <CharString index="405">
            -9 vhcurveto
            -46 hlineto
            -9 -4 return
          </CharString>
          <CharString index="406">
            vlineto
            59 32 32 59 vhcurveto
            return
          </CharString>
          <CharString index="407">
            301 callgsubr
            -92 vhcurveto
            return
          </CharString>
          <CharString index="408">
            3 5 10 hvcurveto
            return
          </CharString>
          <CharString index="409">
            -477 -142 709 rmoveto
            -99 156 278 callsubr
            -45 130 callgsubr
            59 -87 46 -68 33 -41 return
          </CharString>
          <CharString index="410">
            456 callsubr
            -3 2 -6 vhcurveto
            -21 hlineto
            -7 -2 -2 -8 hvcurveto
            -39 vlineto
            -48 13 -29 return
          </CharString>
          <CharString index="411">
            rmoveto
            -10 346 callgsubr
            9 hhcurveto
            32 hlineto
            8 503 callgsubr
          </CharString>
          <CharString index="412">
            -11 -8 -103 callgsubr
            8 -5 11 vhcurveto
            67 -100 callgsubr
            return
          </CharString>
          <CharString index="413">
            -10 436 callsubr
            10 vhcurveto
            46 hlineto
            10 -32 callgsubr
            return
          </CharString>
          <CharString index="414">
            -9 4 -5 443 callgsubr
            5 9 hvcurveto
            94 262 callgsubr
            return
          </CharString>
          <CharString index="415">
            -23 callgsubr
            9 -32 callgsubr
            return
          </CharString>
          <CharString index="416">
            -7 callgsubr
            560 callgsubr
            -5 return
          </CharString>
          <CharString index="417">
            -54 -29 -36 -62 vhcurveto
            return
          </CharString>
          <CharString index="418">
            9 hhcurveto
            29 hlineto
            9 return
          </CharString>
          <CharString index="419">
            58 -55 88 vhcurveto
            return
          </CharString>
          <CharString index="420">
            319 callsubr
            -3 552 callgsubr
            -40 vhcurveto
            -5 hlineto
            -38 -15 523 callgsubr
            return
          </CharString>
          <CharString index="421">
            471 363 callsubr
            -458 -84 callsubr
            458 527 callsubr
            return
          </CharString>
          <CharString index="422">
            256 624 callgsubr
            -4 5 -11 vhcurveto
            -244 -84 callsubr
            244 hlineto
            11 4 5 10 hvcurveto
            return
          </CharString>
          <CharString index="423">
            21 vhcurveto
            4 vlineto
            31 17 16 33 48 vvcurveto
            134 385 callsubr
            7 vhcurveto
            return
          </CharString>
          <CharString index="424">
            vlineto
            -11 5 -13 callgsubr
            38 hlineto
            10 5 4 11 hvcurveto
            87 231 callsubr
            return
          </CharString>
          <CharString index="425">
            -4 8 vhcurveto
            43 hlineto
            9 4 380 callgsubr
            return
          </CharString>
          <CharString index="426">
            34 72 hvcurveto
            12 vlineto
            8 -4 2 -7 vhcurveto
            -26 hlineto
            -7 return
          </CharString>
          <CharString index="427">
            -13 callgsubr
            39 hlineto
            9 452 callsubr
            30 vlineto
            63 return
          </CharString>
          <CharString index="428">
            587 callgsubr
            18 100 callgsubr
            return
          </CharString>
          <CharString index="429">
            hlineto
            57 172 callsubr
            return
          </CharString>
          <CharString index="430">
            9 325 callgsubr
            return
          </CharString>
          <CharString index="431">
            334 callgsubr
            87 105 rlineto
            8 return
          </CharString>
          <CharString index="432">
            -4 vlineto
            -37 -16 -27 -32 -67 vvcurveto
            return
          </CharString>
          <CharString index="433">
            vlineto
            9 -3 4 -11 vhcurveto
            return
          </CharString>
          <CharString index="434">
            -4 146 callgsubr
            return
          </CharString>
          <CharString index="435">
            vlineto
            -11 5 -4 9 vhcurveto
            return
          </CharString>
          <CharString index="436">
            11 448 callgsubr
            return
          </CharString>
          <CharString index="437">
            56 55 93 hvcurveto
            return
          </CharString>
          <CharString index="438">
            -5 5 -11 vhcurveto
            return
          </CharString>
          <CharString index="439">
            346 rmoveto
            417 callsubr
            207 391 callsubr
            return
          </CharString>
          <CharString index="440">
            152 vlineto
            6 return
          </CharString>
          <CharString index="441">
            4 -5 8 vhcurveto
            return
          </CharString>
          <CharString index="442">
            14 16 11 13 488 callgsubr
            38 -12 callgsubr
            314 85 callgsubr
            32 hlineto
            return
          </CharString>
          <CharString index="443">
            hvcurveto
            -99 631 rmoveto
            -75 -37 -37 -77 hvcurveto
            -70 vlineto
            -76 37 -38 75 vhcurveto
            35 hlineto
            76 36 38 76 hvcurveto
            70 vlineto
            77 -36 37 -76 vhcurveto
            return
          </CharString>
          <CharString index="444">
            4 323 callsubr
            return
          </CharString>
          <CharString index="445">
            450 rmoveto
            463 callsubr
            return
          </CharString>
          <CharString index="446">
            447 callsubr
            -37 vlineto
            return
          </CharString>
          <CharString index="447">
            564 callgsubr
            8 7 hvcurveto
            return
          </CharString>
          <CharString index="448">
            -91 52 -59 96 vhcurveto
            return
          </CharString>
          <CharString index="449">
            -6 4 -9 vhcurveto
            return
          </CharString>
          <CharString index="450">
            vhcurveto
            -43 361 callsubr
            return
          </CharString>
          <CharString index="451">
            rmoveto
            -59 -28 30 58 hvcurveto
            228 391 callsubr
            -227 vlineto
            -54 -29 -35 -61 vhcurveto
            return
          </CharString>
          <CharString index="452">
            rlineto
            -3 -4 -1 471 callsubr
            return
          </CharString>
          <CharString index="453">
            -69 -37 -44 -78 vhcurveto
            -63 hlineto
            -75 -38 41 69 hvcurveto
            return
          </CharString>
          <CharString index="454">
            11 3 337 callsubr
            return
          </CharString>
          <CharString index="455">
            22 50 vhcurveto
            127 hlineto
            return
          </CharString>
          <CharString index="456">
            211 callsubr
            -10 vhcurveto
            return
          </CharString>
          <CharString index="457">
            hlineto
            10 452 callsubr
            return
          </CharString>
          <CharString index="458">
            vlineto
            54 541 callgsubr
            return
          </CharString>
          <CharString index="459">
            346 callsubr
            69 517 callsubr
            18 vlineto
            40 -14 21 callsubr
            return
          </CharString>
          <CharString index="460">
            190 rmoveto
            106 callsubr
            73 hlineto
            58 29 -34 -57 hvcurveto
            return
          </CharString>
          <CharString index="461">
            374 callgsubr
            9 vhcurveto
            38 511 callgsubr
          </CharString>
          <CharString index="462">
            hlineto
            59 25 -22 -63 hvcurveto
            -30 vlineto
            -12 6 459 callgsubr
          </CharString>
          <CharString index="463">
            hlineto
            -8 -2 252 callsubr
            10 hhcurveto
            return
          </CharString>
          <CharString index="464">
            vhcurveto
            39 -12 callgsubr
            537 385 callsubr
            7 vhcurveto
            return
          </CharString>
          <CharString index="465">
            -321 390 callgsubr
            return
          </CharString>
          <CharString index="466">
            66 hvcurveto
            102 418 callsubr
            -62 vhcurveto
            -81 vlineto
            -11 return
          </CharString>
          <CharString index="467">
            vhcurveto
            76 hlineto
            12 return
          </CharString>
          <CharString index="468">
            2 callgsubr
            4 16 20 vvcurveto
            return
          </CharString>
          <CharString index="469">
            151 callsubr
            -63 hlineto
            return
          </CharString>
          <CharString index="470">
            624 callgsubr
            -4 5 -12 vhcurveto
            return
          </CharString>
          <CharString index="471">
            -6 -8 6 493 callgsubr
            return
          </CharString>
          <CharString index="472">
            5 8 5 -1 5 -3 9 hvcurveto
            return
          </CharString>
          <CharString index="473">
            -4 5 -10 vhcurveto
            return
          </CharString>
          <CharString index="474">
            rmoveto
            50 15 -19 -50 hvcurveto
            -66 375 callsubr
            -14 20 50 hvcurveto
            66 vlineto
            50 14 19 51 vhcurveto
            return
          </CharString>
          <CharString index="475">
            vlineto
            -81 -60 -185 425 callsubr
            return
          </CharString>
          <CharString index="476">
            rmoveto
            -75 -37 -38 -76 hvcurveto
            -70 vlineto
            -77 37 -38 75 vhcurveto
            35 hlineto
            76 36 38 77 hvcurveto
            70 vlineto
            76 -36 38 -76 vhcurveto
            return
          </CharString>
          <CharString index="477">
            128 callsubr
            235 callgsubr
            return
          </CharString>
          <CharString index="478">
            -3 -1 -5 -6 hvcurveto
            -14 -11 rlineto
            -6 -5 -3 -4 -6 vvcurveto
            -5 return
          </CharString>
          <CharString index="479">
            623 rmoveto
            -81 callsubr
            return
          </CharString>
          <CharString index="480">
            244 rmoveto
            -63 -38 -52 -77 vhcurveto
            -41 hlineto
            -71 -35 29 73 hvcurveto
            return
          </CharString>
          <CharString index="481">
            -30 -16 -13 -34 -41 vvcurveto
            -38 vlineto
            -94 56 -54 return
          </CharString>
          <CharString index="482">
            vlineto
            -50 -15 -20 -50 vhcurveto
            -19 hlineto
            -51 return
          </CharString>
          <CharString index="483">
            -98 hlineto
            -11 5 -13 callgsubr
            return
          </CharString>
          <CharString index="484">
            609 callgsubr
            -7 hvcurveto
            return
          </CharString>
          <CharString index="485">
            vlineto
            7 3 3 7 vhcurveto
            return
          </CharString>
          <CharString index="486">
            hlineto
            56 587 callsubr
            return
          </CharString>
          <CharString index="487">
            396 callgsubr
            -3 return
          </CharString>
          <CharString index="488">
            hlineto
            46 35 15 29 return
          </CharString>
          <CharString index="489">
            -6 3 -10 hhcurveto
            return
          </CharString>
          <CharString index="490">
            vlineto
            -66 callgsubr
            return
          </CharString>
          <CharString index="491">
            508 callsubr
            -15 20 50 hvcurveto
            65 vlineto
            51 15 19 51 vhcurveto
            return
          </CharString>
          <CharString index="492">
            vlineto
            -24 callsubr
            return
          </CharString>
          <CharString index="493">
            22 -24 -54 hvcurveto
            return
          </CharString>
          <CharString index="494">
            vlineto
            -1 vlineto
            0 vlineto
            0 vlineto
            0 593 callsubr
            -8 1 620 callsubr
            return
          </CharString>
          <CharString index="495">
            rmoveto
            11 callsubr
            36 hlineto
            44 20 -22 -44 hvcurveto
            -107 vlineto
            -60 -29 -30 return
          </CharString>
          <CharString index="496">
            70 rmoveto
            -81 callsubr
            return
          </CharString>
          <CharString index="497">
            279 callsubr
            365 hlineto
            12 301 callsubr
            return
          </CharString>
          <CharString index="498">
            vlineto
            6 490 callsubr
            -6 hvcurveto
            return
          </CharString>
          <CharString index="499">
            vlineto
            -60 -29 -30 -59 vhcurveto
            -135 327 callgsubr
            return
          </CharString>
          <CharString index="500">
            11 342 callsubr
            return
          </CharString>
          <CharString index="501">
            66 35 22 50 vhcurveto
            return
          </CharString>
          <CharString index="502">
            534 callsubr
            -8 return
          </CharString>
          <CharString index="503">
            7 334 callgsubr
            return
          </CharString>
          <CharString index="504">
            rmoveto
            -11 5 -4 11 vhcurveto
            37 hlineto
            9 6 121 callsubr
            51 51 19 -21 -51 vhcurveto
            return
          </CharString>
          <CharString index="505">
            rmoveto
            -75 -38 41 69 hvcurveto
            69 16 vlineto
            84 2 49 36 89 vvcurveto
            18 vlineto
            40 -14 21 callsubr
            return
          </CharString>
          <CharString index="506">
            vhcurveto
            322 -100 callgsubr
            -71 573 callsubr
            -94 hvcurveto
            return
          </CharString>
          <CharString index="507">
            -3 299 callgsubr
            3 11 hvcurveto
            return
          </CharString>
          <CharString index="508">
            313 callgsubr
            153 hlineto
            7 3 -4 return
          </CharString>
          <CharString index="509">
            3 -8 vhcurveto
            -43 280 callgsubr
            return
          </CharString>
          <CharString index="510">
            vlineto
            14 -6 6 -11 vhcurveto
            return
          </CharString>
          <CharString index="511">
            vvcurveto
            -5 334 callsubr
            return
          </CharString>
          <CharString index="512">
            vlineto
            -97 callsubr
            return
          </CharString>
          <CharString index="513">
            5 7 -4 hvcurveto
            endchar
          </CharString>
          <CharString index="514">
            -56 -55 -93 hvcurveto
            return
          </CharString>
          <CharString index="515">
            vlineto
            -60 -26 -27 -57 vhcurveto
            -104 -40 callgsubr
            120 hlineto
            return
          </CharString>
          <CharString index="516">
            -27 callgsubr
            -78 -25 callsubr
            -43 vlineto
            return
          </CharString>
          <CharString index="517">
            -39 callgsubr
            -14 21 callsubr
            168 vlineto
            return
          </CharString>
          <CharString index="518">
            -142 227 517 callgsubr
            -31 130 callgsubr
            return
          </CharString>
          <CharString index="519">
            11 1 5 4 11 vvcurveto
            599 callsubr
            return
          </CharString>
          <CharString index="520">
            hlineto
            47 36 524 callsubr
            -25 -27 -58 vhcurveto
            return
          </CharString>
          <CharString index="521">
            280 callgsubr
            -212 vlineto
            -10 5 -2 5 return
          </CharString>
          <CharString index="522">
            -100 callgsubr
            -79 145 callsubr
            return
          </CharString>
          <CharString index="523">
            rmoveto
            -99 callgsubr
            return
          </CharString>
          <CharString index="524">
            176 callsubr
            419 callsubr
            return
          </CharString>
          <CharString index="525">
            30 callsubr
            28 -22 return
          </CharString>
          <CharString index="526">
            -184 hlineto
            283 callsubr
            return
          </CharString>
          <CharString index="527">
            -11 -4 -76 callsubr
            return
          </CharString>
          <CharString index="528">
            vlineto
            50 19 21 return
          </CharString>
          <CharString index="529">
            rmoveto
            9 1 -4 5 -9 hhcurveto
            -44 hlineto
            -10 385 callgsubr
            16 -184 rlineto
            -10 1 5 -6 return
          </CharString>
          <CharString index="530">
            169 callgsubr
            -93 -57 -57 -94 hvcurveto
            -101 vlineto
            return
          </CharString>
          <CharString index="531">
            hlineto
            -11 5 -13 callgsubr
            38 hlineto
            10 5 4 11 hvcurveto
            87 231 callsubr
            8 vhcurveto
            183 return
          </CharString>
          <CharString index="532">
            -144 79 callgsubr
            return
          </CharString>
          <CharString index="533">
            -24 -19 -55 vhcurveto
            return
          </CharString>
          <CharString index="534">
            5 -3 3 hvcurveto
            return
          </CharString>
          <CharString index="535">
            536 callgsubr
            -4 522 callgsubr
            return
          </CharString>
          <CharString index="536">
            vhcurveto
            44 502 callsubr
            -56 -56 -94 return
          </CharString>
          <CharString index="537">
            -43 callsubr
            -44 return
          </CharString>
          <CharString index="538">
            vlineto
            62 -34 552 callsubr
            10 return
          </CharString>
          <CharString index="539">
            8 597 callgsubr
            6 hvcurveto
            4 4 return
          </CharString>
          <CharString index="540">
            618 callsubr
            3 -5 return
          </CharString>
          <CharString index="541">
            157 callsubr
            120 385 callsubr
            return
          </CharString>
          <CharString index="542">
            -85 -57 21 -30 37 -14 hvcurveto
            -4 vlineto
            -37 -16 -27 return
          </CharString>
          <CharString index="543">
            232 callsubr
            -48 vlineto
            -10 5 -5 return
          </CharString>
          <CharString index="544">
            46 41 76 hvcurveto
            34 vlineto
            77 -46 35 return
          </CharString>
          <CharString index="545">
            226 278 callsubr
            return
          </CharString>
          <CharString index="546">
            526 callsubr
            6 4 6 return
          </CharString>
          <CharString index="547">
            403 callsubr
            -28 hlineto
            -10 return
          </CharString>
          <CharString index="548">
            hlineto
            225 callsubr
            return
          </CharString>
          <CharString index="549">
            rmoveto
            447 callgsubr
            return
          </CharString>
          <CharString index="550">
            vlineto
            530 callgsubr
            return
          </CharString>
          <CharString index="551">
            -19 -42 vhcurveto
            -53 vlineto
            -55 return
          </CharString>
          <CharString index="552">
            42 621 callsubr
            83 return
          </CharString>
          <CharString index="553">
            562 callsubr
            -81 vhcurveto
            return
          </CharString>
          <CharString index="554">
            -13 -9 -23 -35 vvcurveto
            return
          </CharString>
          <CharString index="555">
            -48 -42 -90 vhcurveto
            return
          </CharString>
          <CharString index="556">
            rmoveto
            342 callgsubr
            185 vlineto
            204 -231 rlineto
            -27 -14 -26 -15 -39 hhcurveto
            return
          </CharString>
          <CharString index="557">
            506 callsubr
            10 5 5 11 hvcurveto
            return
          </CharString>
          <CharString index="558">
            vlineto
            -9 -1 -8 return
          </CharString>
          <CharString index="559">
            5 4 12 hvcurveto
            return
          </CharString>
          <CharString index="560">
            -110 vlineto
            -100 56 -49 94 vhcurveto
            43 -50 callsubr
            10 -5 return
          </CharString>
          <CharString index="561">
            vhcurveto
            23 -55 callsubr
            -30 hlineto
            -74 -48 return
          </CharString>
          <CharString index="562">
            -10 -5 -4 101 callgsubr
            521 callsubr
            5 10 hvcurveto
            return
          </CharString>
          <CharString index="563">
            -14 -9 -35 -16 vhcurveto
            -37 -17 -5 -8 -14 hhcurveto
            -20 -5 11 38 hvcurveto
            26 vlineto
            8 return
          </CharString>
          <CharString index="564">
            hvcurveto
            -28 -73 -203 -466 -28 -73 rrcurveto
            -12 -5 5 -4 311 callsubr
            return
          </CharString>
          <CharString index="565" raw="1">
            2a064a0a 0b  
          </CharString>
          <CharString index="566">
            138 callgsubr
            153 hlineto
            7 3 return
          </CharString>
          <CharString index="567">
            -5 8 441 callgsubr
            return
          </CharString>
          <CharString index="568">
            15 11 24 hvcurveto
            105 385 callsubr
            8 vhcurveto
            return
          </CharString>
          <CharString index="569">
            473 522 callsubr
            -124 hlineto
            return
          </CharString>
          <CharString index="570">
            176 callsubr
            -97 hlineto
            return
          </CharString>
          <CharString index="571">
            16 37 callsubr
            return
          </CharString>
          <CharString index="572">
            -12 -3 -76 callsubr
            return
          </CharString>
          <CharString index="573">
            27 -21 -65 vhcurveto
            return
          </CharString>
          <CharString index="574">
            -4 -5 -9 hvcurveto
            return
          </CharString>
          <CharString index="575">
            211 499 callgsubr
            return
          </CharString>
          <CharString index="576">
            212 142 rmoveto
            -60 -30 219 callsubr
            14 2 12 3 11 vhcurveto
            return
          </CharString>
          <CharString index="577">
            -10 hvcurveto
            -38 vlineto
            -10 4 -5 10 vhcurveto
            33 hlineto
            9 -32 callgsubr
            endchar
          </CharString>
          <CharString index="578">
            -3 464 callgsubr
            return
          </CharString>
          <CharString index="579">
            vvcurveto
            -6 496 callgsubr
            44 hlineto
            return
          </CharString>
          <CharString index="580">
            hlineto
            420 callsubr
            -32 vlineto
            return
          </CharString>
          <CharString index="581">
            232 callsubr
            -212 vlineto
            -10 return
          </CharString>
          <CharString index="582">
            9 hvcurveto
            37 vlineto
            9 -4 return
          </CharString>
          <CharString index="583">
            12 46 hvcurveto
            10 vlineto
            45 return
          </CharString>
          <CharString index="584">
            563 callsubr
            -89 vlineto
            return
          </CharString>
          <CharString index="585">
            vlineto
            -45 callsubr
            return
          </CharString>
          <CharString index="586">
            vlineto
            66 31 22 50 vhcurveto
            return
          </CharString>
          <CharString index="587">
            -51 -42 -72 vhcurveto
            return
          </CharString>
          <CharString index="588">
            50 -100 vhcurveto
            endchar
          </CharString>
          <CharString index="589">
            275 callgsubr
            -55 -19 -32 -60 hvcurveto
            return
          </CharString>
          <CharString index="590">
            hlineto
            13 7 4 12 hvcurveto
            26 vlineto
            10 -5 7 -14 vhcurveto
            -45 hlineto
            -49 -21 return
          </CharString>
          <CharString index="591">
            -37 callgsubr
            -12 hlineto
            -53 return
          </CharString>
          <CharString index="592">
            -72 callgsubr
            323 hlineto
            return
          </CharString>
          <CharString index="593">
            -107 callgsubr
            314 hlineto
            7 3 return
          </CharString>
          <CharString index="594">
            -89 hlineto
            -56 -26 24 57 hvcurveto
            33 vlineto
            46 24 24 45 vhcurveto
            62 hlineto
            11 return
          </CharString>
          <CharString index="595">
            -48 callsubr
            36 hlineto
            44 20 return
          </CharString>
          <CharString index="596">
            15 -4 15 16 138 callgsubr
            return
          </CharString>
          <CharString index="597">
            3 4 8 vhcurveto
            183 hlineto
            7 3 -4 return
          </CharString>
          <CharString index="598">
            10 4 5 9 hvcurveto
            return
          </CharString>
          <CharString index="599">
            215 64 rmoveto
            -56 return
          </CharString>
          <CharString index="600">
            vlineto
            -11 5 -5 return
          </CharString>
          <CharString index="601">
            hlineto
            10 5 3 return
          </CharString>
          <CharString index="602">
            rlineto
            -3 -3 -2 return
          </CharString>
          <CharString index="603">
            vlineto
            -45 -20 -16 return
          </CharString>
          <CharString index="604">
            -4 hlineto
            -23 339 callsubr
            -50 17 -30 43 -15 vhcurveto
            return
          </CharString>
          <CharString index="605">
            433 callsubr
            8 hhcurveto
            33 hlineto
            return
          </CharString>
          <CharString index="606">
            324 callgsubr
            145 vlineto
            7 3 -4 -7 hvcurveto
            return
          </CharString>
          <CharString index="607">
            vlineto
            29 -41 128 -216 rlineto
            -6 4 5 -5 8 hhcurveto
            43 hlineto
            return
          </CharString>
          <CharString index="608">
            vlineto
            283 callsubr
            144 181 callgsubr
            -9 hlineto
            return
          </CharString>
          <CharString index="609">
            -5 callsubr
            -54 hlineto
            -93 return
          </CharString>
          <CharString index="610">
            6 510 callsubr
          </CharString>
          <CharString index="611">
            vlineto
            -103 55 -46 return
          </CharString>
          <CharString index="612">
            229 rmoveto
            11 callsubr
            return
          </CharString>
          <CharString index="613">
            309 callsubr
            10 vhcurveto
            38 hlineto
            return
          </CharString>
          <CharString index="614">
            135 170 callsubr
            return
          </CharString>
          <CharString index="615">
            50 15 -19 -51 hvcurveto
            -65 375 callsubr
            return
          </CharString>
          <CharString index="616">
            39 16 22 36 56 vvcurveto
            43 vlineto
            40 -14 31 -28 14 vhcurveto
            4 return
          </CharString>
          <CharString index="617">
            160 callgsubr
            -8 hhcurveto
            endchar
          </CharString>
          <CharString index="618">
            vlineto
            -95 57 -57 558 callgsubr
            return
          </CharString>
          <CharString index="619">
            -5 16 18 575 callgsubr
            return
          </CharString>
          <CharString index="620">
            rmoveto
            9 -5 -7 4 -10 hhcurveto
            -60 hlineto
            return
          </CharString>
          <CharString index="621">
            836 rmoveto
            -10 -7 -4 -9 -5 hvcurveto
            return
          </CharString>
          <CharString index="622">
            14 520 callsubr
            return
          </CharString>
          <CharString index="623">
            rlineto
            5 -5 -3 2 -4 hhcurveto
            return
          </CharString>
          <CharString index="624">
            17 vlineto
            84 48 39 88 hvcurveto
            return
          </CharString>
          <CharString index="625">
            -35 hlineto
            -93 -57 -49 -94 hvcurveto
            return
          </CharString>
          <CharString index="626">
            vhcurveto
            44 hlineto
            10 6 4 6 return
          </CharString>
          <CharString index="627">
            rmoveto
            -24 callgsubr
            return
          </CharString>
          <CharString index="628">
            10 vhcurveto
            42 hlineto
            9 5 return
          </CharString>
          <CharString index="629">
            rmoveto
            175 callgsubr
            return
          </CharString>
          <CharString index="630" raw="1">
            8ff78a0a 950b  
          </CharString>
          <CharString index="631">
            -20 -66 hvcurveto
            -65 vlineto
            -60 return
          </CharString>
          <CharString index="632">
            -1 4 -2 7 hvcurveto
            -5 return
          </CharString>
          <CharString index="633">
            -5 9 hhcurveto
            23 hlineto
            7 return
          </CharString>
          <CharString index="634">
            hlineto
            12 4 5 10 hvcurveto
            return
          </CharString>
          <CharString index="635">
            -37 hlineto
            -9 -6 -4 return
          </CharString>
          <CharString index="636">
            19 34 18 hvcurveto
            4 return
          </CharString>
          <CharString index="637">
            92 45 47 87 hvcurveto
            return
          </CharString>
          <CharString index="638">
            9 408 callgsubr
            return
          </CharString>
          <CharString index="639">
            -90 312 callsubr
            return
          </CharString>
          <CharString index="640">
            -22 -41 -14 hvcurveto
            return
          </CharString>
          <CharString index="641">
            -2 -3 -5 vvcurveto
            return
          </CharString>
          <CharString index="642">
            hlineto
            -91 -56 -55 -92 hvcurveto
            -349 vlineto
            -92 56 -55 91 vhcurveto
            return
          </CharString>
          <CharString index="643">
            431 callgsubr
            -7 hvcurveto
            return
          </CharString>
          <CharString index="644">
            hlineto
            18 13 12 20 115 callgsubr
            return
          </CharString>
          <CharString index="645">
            rmoveto
            -61 -32 34 58 hvcurveto
            198 vlineto
            58 32 34 61 vhcurveto
            return
          </CharString>
          <CharString index="646">
            hlineto
            52 274 callsubr
            return
          </CharString>
          <CharString index="647">
            8 5 -2 5 return
          </CharString>
          <CharString index="648">
            80 rlineto
            10 22 return
          </CharString>
          <CharString index="649">
            516 callgsubr
            -28 17 -49 vhcurveto
            4 vlineto
            return
          </CharString>
          <CharString index="650">
            hlineto
            9 185 callsubr
            return
          </CharString>
          <CharString index="651">
            -100 callgsubr
            -74 vlineto
            -7 -4 -3 -7 vhcurveto
            return
          </CharString>
          <CharString index="652">
            hlineto
            -11 -4 -4 -10 555 callsubr
            return
          </CharString>
          <CharString index="653">
            127 callsubr
            -33 116 callsubr
            return
          </CharString>
          <CharString index="654">
            vlineto
            433 callgsubr
            return
          </CharString>
          <CharString index="655">
            hlineto
            -49 -17 287 callgsubr
            return
          </CharString>
          <CharString index="656">
            vlineto
            -12 5 -6 12 vhcurveto
            41 hlineto
            11 6 6 12 hvcurveto
            return
          </CharString>
          <CharString index="657">
            -8 callgsubr
            -160 480 callgsubr
            return
          </CharString>
          <CharString index="658">
            -2 7 471 callgsubr
          </CharString>
          <CharString index="659">
            43 -50 10 vhcurveto
            4 vlineto
            28 13 return
          </CharString>
          <CharString index="660">
            -32 -51 vhcurveto
            -57 vlineto
            -94 61 -73 return
          </CharString>
          <CharString index="661">
            10 hhcurveto
            28 194 callgsubr
            return
          </CharString>
          <CharString index="662">
            hvcurveto
            -32 -3 callgsubr
            return
          </CharString>
          <CharString index="663">
            4 3 5 3 vhcurveto
            33 80 rlineto
            return
          </CharString>
          <CharString index="664">
            585 callgsubr
            51 hlineto
            return
          </CharString>
          <CharString index="665">
            92 330 callsubr
            return
          </CharString>
          <CharString index="666">
            -32 85 vhcurveto
            91 hlineto
            return
          </CharString>
          <CharString index="667">
            -46 -20 14 41 hvcurveto
            return
          </CharString>
          <CharString index="668">
            -7 -3 3 8 hvcurveto
            return
          </CharString>
          <CharString index="669">
            vlineto
            75 -46 35 return
          </CharString>
          <CharString index="670">
            -56 -94 -1 hvcurveto
            return
          </CharString>
          <CharString index="671">
            -3 1 -4 hhcurveto
            return
          </CharString>
          <CharString index="672">
            vlineto
            9 -4 4 return
          </CharString>
          <CharString index="673">
            9 -4 6 -11 return
          </CharString>
          <CharString index="674">
            vhcurveto
            38 hlineto
            11 return
          </CharString>
          <CharString index="675">
            hlineto
            -10 -6 -3 return
          </CharString>
          <CharString index="676">
            401 callsubr
            -7 hvcurveto
            return
          </CharString>
          <CharString index="677">
            -98 vlineto
            -94 58 -56 608 callsubr
            60 45 26 return
          </CharString>
          <CharString index="678">
            55 -91 vhcurveto
            -56 hlineto
            -51 -36 -21 -32 -15 hvcurveto
            -4 return
          </CharString>
          <CharString index="679">
            rmoveto
            374 callsubr
            return
          </CharString>
          <CharString index="680">
            179 callsubr
            -110 hlineto
            -94 -53 -55 return
          </CharString>
          <CharString index="681">
            287 callsubr
            endchar
          </CharString>
          <CharString index="682">
            hlineto
            -56 -28 31 56 hvcurveto
            return
          </CharString>
          <CharString index="683">
            hmoveto
            256 callsubr
            return
          </CharString>
          <CharString index="684">
            5 vvcurveto
            6 -3 4 -6 return
          </CharString>
          <CharString index="685">
            559 callsubr
            80 return
          </CharString>
          <CharString index="686">
            vlineto
            -11 4 -3 9 vhcurveto
            return
          </CharString>
          <CharString index="687">
            vlineto
            -10 3 -4 12 vhcurveto
            return
          </CharString>
          <CharString index="688">
            hlineto
            46 20 -14 -46 hvcurveto
            return
          </CharString>
          <CharString index="689">
            vlineto
            -10 4 -5 12 vhcurveto
            return
          </CharString>
          <CharString index="690">
            -4 -7 vhcurveto
            -112 hlineto
            return
          </CharString>
          <CharString index="691">
            vlineto
            -6 -3 -4 -8 vhcurveto
            return
          </CharString>
          <CharString index="692">
            -3 2 -4 hvcurveto
            59 -87 return
          </CharString>
          <CharString index="693">
            -17 vhcurveto
            -4 vlineto
            return
          </CharString>
          <CharString index="694">
            28 -31 -56 hvcurveto
            return
          </CharString>
          <CharString index="695">
            -57 -57 -94 hvcurveto
            return
          </CharString>
          <CharString index="696">
            -3 hvcurveto
            -187 return
          </CharString>
          <CharString index="697">
            hlineto
            6 438 callgsubr
            return
          </CharString>
          <CharString index="698">
            -220 rlineto
            -6 4 4 -5 9 hhcurveto
            43 hlineto
            return
          </CharString>
          <CharString index="699">
            20 67 hvcurveto
            124 300 callgsubr
            return
          </CharString>
          <CharString index="700">
            vlineto
            489 callgsubr
            return
          </CharString>
          <CharString index="701">
            vhcurveto
            39 hlineto
            10 6 230 callsubr
            return
          </CharString>
          <CharString index="702">
            vhcurveto
            -56 hlineto
            -12 -4 -76 callsubr
            -114 vlineto
            return
          </CharString>
          <CharString index="703">
            17 49 48 22 19 50 hvcurveto
            return
          </CharString>
          <CharString index="704">
            17 callgsubr
            -1 return
          </CharString>
          <CharString index="705">
            12 4 5 246 callsubr
            return
          </CharString>
          <CharString index="706">
            29 151 callsubr
            return
          </CharString>
          <CharString index="707">
            495 callsubr
            -3 -4 vvcurveto
            return
          </CharString>
          <CharString index="708">
            4 2 6 3 hvcurveto
            47 88 return
          </CharString>
          <CharString index="709">
            hlineto
            7 466 callgsubr
            return
          </CharString>
          <CharString index="710">
            -96 -54 -58 -92 hvcurveto
            return
          </CharString>
          <CharString index="711">
            -8 3 -6 11 vhcurveto
            return
          </CharString>
          <CharString index="712">
            -55 -85 hvcurveto
            -44 vlineto
            return
          </CharString>
          <CharString index="713">
            -34 -17 -28 -13 hvcurveto
            return
          </CharString>
          <CharString index="714">
            vhcurveto
            -87 hlineto
            -47 return
          </CharString>
          <CharString index="715">
            92 vhcurveto
            52 hlineto
            return
          </CharString>
          <CharString index="716">
            3 7 5 hvcurveto
            return
          </CharString>
          <CharString index="717" raw="1">
            1ea40696 8f90951f a9070b 
          </CharString>
          <CharString index="718">
            35 callgsubr
            3 4 return
          </CharString>
          <CharString index="719">
            25 26 -18 19 -26 -25 -19 -19 -26 vhcurveto
            return
          </CharString>
          <CharString index="720">
            381 callgsubr
            39 25 -19 -42 vhcurveto
            return
          </CharString>
          <CharString index="721">
            481 callgsubr
            153 hlineto
            8 2 -4 return
          </CharString>
          <CharString index="722">
            hlineto
            -11 6 -4 9 vhcurveto
            38 hlineto
            10 5 return
          </CharString>
          <CharString index="723">
            -15 -17 -24 -39 vvcurveto
            -19 vlineto
            -77 47 -31 return
          </CharString>
          <CharString index="724">
            hlineto
            437 callgsubr
            return
          </CharString>
          <CharString index="725">
            -7 -4 -9 -5 529 callgsubr
            -5 return
          </CharString>
          <CharString index="726">
            3 439 callsubr
            return
          </CharString>
          <CharString index="727">
            5 -4 9 hhcurveto
            return
          </CharString>
          <CharString index="728">
            95 hvcurveto
            57 vlineto
            return
          </CharString>
          <CharString index="729">
            27 -26 13 vhcurveto
            return
          </CharString>
          <CharString index="730">
            93 vhcurveto
            83 hlineto
            return
          </CharString>
          <CharString index="731">
            27 30 57 vhcurveto
            return
          </CharString>
          <CharString index="732">
            vlineto
            -52 -24 -13 return
          </CharString>
        <CharString name=".notdef">
          276 171 hmoveto
          410 701 -410 hlineto
          66 -61 rmoveto
          279 -579 -279 hlineto
          endchar
        </CharString>
        <CharString name="A">
          63 -73 callgsubr
          endchar
        </CharString>
        <CharString name="AE">
          298 371 570 rmoveto
          4 -344 -186 hlineto
          -126 -226 rmoveto
          9 4 3 11 5 hvcurveto
          78 147 rlineto
          216 -147 hlineto
          -11 4 -3 9 vhcurveto
          315 hlineto
          10 3 92 callgsubr
          -3 5 -10 vhcurveto
          -245 hlineto
          -8 -3 3 6 hvcurveto
          213 vlineto
          492 callgsubr
          213 hlineto
          11 4 5 9 hvcurveto
          36 193 callsubr
          -213 hlineto
          -8 -3 3 6 hvcurveto
          202 vlineto
          492 callgsubr
          245 hlineto
          10 3 92 callgsubr
          -3 5 -10 vhcurveto
          -356 hlineto
          -11 -6 -3 -11 -6 hvcurveto
          -320 -614 rlineto
          -10 -5 3 -5 10 hhcurveto
          endchar
        </CharString>
        <CharString name="Aacute">
          62 -73 callgsubr
          291 836 rmoveto
          -9 -8 -4 -9 -4 hvcurveto
          -58 221 callgsubr
        </CharString>
        <CharString name="Abreve">
          62 -73 callgsubr
          128 825 rmoveto
          -12 vlineto
          -72 33 -34 62 vhcurveto
          18 hlineto
          62 34 313 callsubr
          -4 3 -7 vhcurveto
          -27 hlineto
          -7 -4 -3 -8 hvcurveto
          endchar
        </CharString>
        <CharString name="Acircumflex">
          62 -73 callgsubr
          270 826 rmoveto
          7 -5 -5 3 -10 168 callsubr
          34 hlineto
          7 4 2 6 2 hvcurveto
          48 251 callgsubr
          2 406 callsubr
        </CharString>
        <CharString name="Adieresis">
          62 -73 callgsubr
          284 721 141 callsubr
          -171 -101 141 callsubr
          endchar
        </CharString>
        <CharString name="Agrave">
          62 -73 callgsubr
          194 823 rmoveto
          9 -4 -8 4 -9 hhcurveto
          -60 hlineto
          -9 199 callgsubr
          9 2 407 callgsubr
        </CharString>
        <CharString name="Amacron">
          62 -73 callgsubr
          333 746 619 callgsubr
          5 -11 239 callgsubr
        </CharString>
        <CharString name="Aogonek">
          62 165 222 rmoveto
          103 346 rlineto
          4 hlineto
          103 -346 rlineto
          -50 407 rmoveto
          11 -3 382 callsubr
          -72 568 callsubr
          -11 589 callsubr
          -615 rlineto
          -10 -3 3 -4 9 hhcurveto
          50 hlineto
          9 3 3 11 3 hvcurveto
          47 146 rlineto
          242 hlineto
          45 -141 -61 -86 rlineto
          -21 -15 8 -23 34 hhcurveto
          37 43 11 19 11 -5 3 -21 hvcurveto
          -39 hlineto
          48 67 rlineto
          38 hlineto
          9 3 4 10 -3 hvcurveto
          endchar
        </CharString>
        <CharString name="Aring">
          62 -73 callgsubr
          225 730 rmoveto
          -27 -13 14 29 hvcurveto
          23 vlineto
          29 13 14 27 vhcurveto
          13 hlineto
          27 12 -14 -29 hvcurveto
          -23 vlineto
          -29 -12 -14 -28 vhcurveto
          10 -33 rmoveto
          42 25 25 43 hvcurveto
          41 vlineto
          42 -25 24 -42 vhcurveto
          -31 hlineto
          -43 -23 -24 -42 hvcurveto
          -41 vlineto
          -43 23 -25 43 vhcurveto
          endchar
        </CharString>
        <CharString name="Atilde">
          62 -73 callgsubr
          246 753 337 callgsubr
          6 vhcurveto
          22 hlineto
          6 3 3 8 hvcurveto
          39 vlineto
          49 -14 29 -50 -27 303 callsubr
          50 25 17 7 44 18 vhcurveto
          endchar
        </CharString>
        <CharString name="B">
          72 79 515 callsubr
          242 hlineto
          92 56 53 93 hvcurveto
          67 vlineto
          70 -45 40 -47 4 vhcurveto
          49 15 35 35 65 vvcurveto
          55 vlineto
          93 -56 53 -91 vhcurveto
          -235 598 callgsubr
          -271 rmoveto
          -7 -3 3 6 hvcurveto
          204 378 callsubr
          157 hlineto
          56 29 -29 -56 hvcurveto
          -53 vlineto
          -56 -31 -29 -57 vhcurveto
          -154 -296 rmoveto
          -7 -3 3 7 hvcurveto
          216 8 callsubr
          158 hlineto
          63 29 -28 -57 hvcurveto
          -65 vlineto
          -56 -29 -29 -57 vhcurveto
          endchar
        </CharString>
        <CharString name="C">
          64 337 hmoveto
          42 callgsubr
        </CharString>
        <CharString name="CR">
          -223 endchar
        </CharString>
        <CharString name="Cacute">
          64 323 514 callsubr
          -57 -102 rlineto
          -9 -5 3 -5 8 hhcurveto
          33 hlineto
          7 8 324 callsubr
          6 -4 6 -9 hhcurveto
          -46 -836 rmoveto
          42 callgsubr
        </CharString>
        <CharString name="Ccaron">
          64 295 707 rmoveto
          10 241 callgsubr
          -4 -2 -6 -3 hvcurveto
          -47 -88 -48 88 rlineto
          6 -2 -5 2 -7 317 callgsubr
          75 -707 rmoveto
          42 callgsubr
        </CharString>
        <CharString name="Ccedilla">
          64 471 432 rmoveto
          531 callsubr
          49 300 callsubr
          -120 hlineto
          -92 407 callsubr
          -347 vlineto
          -93 56 -55 92 vhcurveto
          53 hlineto
          -40 -46 461 callgsubr
          -6 -24 hvcurveto
          -3 vlineto
          -21 -12 -8 -39 318 callgsubr
          33 19 45 hvcurveto
          13 vlineto
          48 -28 17 -49 vhcurveto
          4 vlineto
          44 46 rlineto
          14 hlineto
          558 callsubr
          49 262 callgsubr
          -45 201 callgsubr
          -46 vlineto
          -56 -27 -31 -57 vhcurveto
          -103 156 callgsubr
          103 329 callgsubr
          -46 443 callsubr
          endchar
        </CharString>
        <CharString name="D">
          161 callgsubr
          endchar
        </CharString>
        <CharString name="Dcaron">
          161 callgsubr
          -72 643 rmoveto
          34 hlineto
          9 241 callgsubr
          -4 -2 -6 -3 hvcurveto
          -48 -88 -47 88 rlineto
          6 -3 -3 2 -8 317 callgsubr
          endchar
        </CharString>
        <CharString name="Dcroat">
          387 callgsubr
          -224 480 callgsubr
          -37 hlineto
          -11 534 callgsubr
          -30 vlineto
          -9 3 -4 11 vhcurveto
          37 hlineto
          8 2 -3 -7 hvcurveto
          -315 -14 callsubr
          69 64 rmoveto
          -7 -3 3 6 hvcurveto
          256 378 callsubr
          126 351 callgsubr
          30 326 callsubr
          -126 hlineto
          -7 -3 3 7 hvcurveto
          165 8 callsubr
          168 329 callgsubr
          -341 vlineto
          -56 -27 -31 -57 vhcurveto
          endchar
        </CharString>
        <CharString name="E">
          3 -77 callsubr
          endchar
        </CharString>
        <CharString name="Eacute">
          3 -77 callsubr
          204 514 callsubr
          -57 -102 rlineto
          -9 -5 2 426 callgsubr
        </CharString>
        <CharString name="Ecaron">
          3 -77 callsubr
          142 707 rmoveto
          35 hlineto
          9 241 callgsubr
          -4 -2 -6 -3 hvcurveto
          -47 -88 -48 88 rlineto
          6 -3 -4 2 -7 hhcurveto
          -33 hlineto
          -9 235 callgsubr
          endchar
        </CharString>
        <CharString name="Ecircumflex">
          3 -77 callsubr
          194 826 239 callsubr
          8 1 5 7 -4 hvcurveto
          endchar
        </CharString>
        <CharString name="Edieresis">
          3 -77 callsubr
          208 721 181 callsubr
        </CharString>
        <CharString name="Edotaccent">
          15 -77 callsubr
          120 725 rmoveto
          -10 5 -4 299 callgsubr
          4 10 hvcurveto
          97 vlineto
          10 -5 4 -8 vhcurveto
          -46 201 callgsubr
          endchar
        </CharString>
        <CharString name="Egrave">
          3 -77 callsubr
          128 823 rmoveto
          9 -4 -7 4 -10 hhcurveto
          -60 hlineto
          -9 199 callgsubr
          9 2 407 callgsubr
        </CharString>
        <CharString name="Emacron">
          3 -77 callsubr
          257 746 619 callgsubr
          5 -11 239 callgsubr
        </CharString>
        <CharString name="Eogonek">
          3 407 579 rmoveto
          19 callsubr
          224 hlineto
          -48 425 callgsubr
          48 113 callsubr
          -245 hlineto
          -7 -3 3 6 hvcurveto
          213 8 callsubr
          214 113 callsubr
          -214 hlineto
          -7 -3 3 6 hvcurveto
          202 8 callsubr
          endchar
        </CharString>
        <CharString name="Eth">
          387 callgsubr
          -267 vlineto
          -6 -2 -3 -8 vhcurveto
          -37 127 callsubr
          -30 vlineto
          -9 3 -4 11 vhcurveto
          37 hlineto
          8 2 -3 -7 hvcurveto
          -272 -14 callsubr
          69 64 rmoveto
          -7 -3 3 6 hvcurveto
          213 378 callsubr
          126 351 callgsubr
          30 163 callsubr
          -126 hlineto
          -7 -3 3 6 hvcurveto
          208 8 callsubr
          168 329 callgsubr
          -341 vlineto
          -56 -27 -31 -57 vhcurveto
          endchar
        </CharString>
        <CharString name="Euro">
          53 316 hmoveto
          91 57 53 93 hvcurveto
          25 262 callgsubr
          -45 201 callgsubr
          -24 vlineto
          -56 -28 -29 -56 vhcurveto
          -47 hlineto
          -56 -29 29 56 hvcurveto
          84 139 vlineto
          12 301 callsubr
          23 -36 callsubr
          -139 71 139 hlineto
          12 301 callsubr
          23 -36 callsubr
          -139 88 hlineto
          56 29 29 56 vhcurveto
          47 hlineto
          56 28 -29 -56 hvcurveto
          -24 547 callsubr
          25 vlineto
          93 -57 53 -91 vhcurveto
          -65 hlineto
          -91 -57 -53 -93 hvcurveto
          -89 -55 vlineto
          465 callsubr
          -23 279 callsubr
          55 -71 -55 hlineto
          465 callsubr
          -23 279 callsubr
          55 -85 hlineto
          -93 57 -53 91 vhcurveto
          endchar
        </CharString>
        <CharString name="F">
          -20 138 115 callsubr
          255 378 callsubr
          542 callgsubr
          4 4 10 hvcurveto
          36 173 callsubr
          -214 hlineto
          -7 -3 3 6 hvcurveto
          218 8 callsubr
          242 113 callsubr
          -311 6 callsubr
          endchar
        </CharString>
        <CharString name="G">
          12 callsubr
          endchar
        </CharString>
        <CharString name="Gbreve">
          12 callsubr
          -50 825 rmoveto
          -12 vlineto
          -72 33 -34 62 vhcurveto
          17 hlineto
          63 33 34 72 hvcurveto
          12 vlineto
          8 -3 2 -8 vhcurveto
          -26 hlineto
          -6 -4 552 callgsubr
          -39 vhcurveto
          -6 hlineto
          -38 -15 523 callgsubr
          -3 3 -7 vhcurveto
          -28 hlineto
          -7 -3 -3 -8 hvcurveto
          endchar
        </CharString>
        <CharString name="H">
          95 138 115 callsubr
          270 8 callsubr
          248 174 callgsubr
          -270 vlineto
          -11 5 -3 9 vhcurveto
          45 189 callsubr
          -45 -32 callsubr
          hvcurveto
          -263 vlineto
          -6 257 callsubr
          -248 hlineto
          -7 -3 3 6 hvcurveto
          263 vlineto
          11 -5 3 -9 vhcurveto
          -45 6 callsubr
          endchar
        </CharString>
        <CharString name="I">
          -236 157 629 54 callsubr
          endchar
        </CharString>
        <CharString name="Iacute">
          -236 157 629 54 callsubr
          19 822 rmoveto
          -9 346 callgsubr
          8 hhcurveto
          33 hlineto
          8 7 324 callsubr
          7 -4 6 -9 hhcurveto
          endchar
        </CharString>
        <CharString name="Icircumflex">
          -237 157 629 54 callsubr
          812 vmoveto
          7 -5 -6 3 -9 168 callsubr
          33 hlineto
          8 4 2 6 3 hvcurveto
          47 251 callgsubr
          1 5 7 -4 hvcurveto
          endchar
        </CharString>
        <CharString name="Idieresis">
          -237 157 629 54 callsubr
          14 707 182 callgsubr
        </CharString>
        <CharString name="Idotaccent">
          -236 84 706 rmoveto
          -10 4 -4 519 callgsubr
          10 hvcurveto
          94 vlineto
          10 -5 236 callsubr
          -4 -10 hvcurveto
          73 -170 54 callsubr
          endchar
        </CharString>
        <CharString name="Igrave">
          -236 157 629 54 callsubr
          -71 809 314 callgsubr
        </CharString>
        <CharString name="Imacron">
          -237 157 629 54 callsubr
          64 732 rmoveto
          10 4 5 9 hvcurveto
          26 vlineto
          9 -4 5 -10 239 callgsubr
        </CharString>
        <CharString name="Iogonek">
          -236 98 643 rmoveto
          13 callsubr
          hvcurveto
          -615 vlineto
          -9 4 -4 6 -1 vhcurveto
          -48 -67 rlineto
          -21 -16 8 -23 35 hhcurveto
          37 43 11 19 11 -5 3 -20 hvcurveto
          -40 hlineto
          49 67 rlineto
          6 189 callsubr
          endchar
        </CharString>
        <CharString name="J">
          28 373 643 rmoveto
          -10 221 callsubr
          -478 163 callgsubr
          -82 575 callsubr
          83 vlineto
          -75 callgsubr
          -86 vlineto
          -93 57 -55 91 vhcurveto
          100 hlineto
          256 callsubr
          482 565 callsubr
          -9 vhcurveto
          endchar
        </CharString>
        <CharString name="K">
          117 callgsubr
          endchar
        </CharString>
        <CharString name="L">
          64 callgsubr
          endchar
        </CharString>
        <CharString name="Lacute">
          64 callgsubr
          79 836 rmoveto
          -10 -7 -4 -9 -5 hvcurveto
          -58 -102 rlineto
          -9 -5 3 426 callgsubr
        </CharString>
        <CharString name="Lcaron">
          64 callgsubr
          278 630 243 callsubr
          -44 hlineto
          -8 150 callsubr
          endchar
        </CharString>
        <CharString name="Lslash">
          30 430 hmoveto
          229 callsubr
          -252 hlineto
          -8 -2 3 6 hvcurveto
          315 vlineto
          95 54 rlineto
          10 5 4 6 9 vvcurveto
          38 vlineto
          9 -5 4 -9 -5 vhcurveto
          -95 -53 rlineto
          172 vlineto
          -75 callgsubr
          -214 vlineto
          -70 -40 rlineto
          -10 -5 -4 -6 -9 vvcurveto
          -37 vlineto
          -9 5 -4 9 5 vhcurveto
          70 40 rlineto
          -336 -14 callsubr
          endchar
        </CharString>
        <CharString name="M">
          228 355 221 rmoveto
          -5 hlineto
          -164 414 rlineto
          5 -2 -3 3 -7 hhcurveto
          -81 hlineto
          -8 -6 -3 -11 hvcurveto
          -615 vlineto
          -11 6 -3 8 vhcurveto
          44 hlineto
          10 3 3 11 hvcurveto
          532 4 vlineto
          158 -393 rlineto
          -9 3 4 -4 10 hhcurveto
          48 hlineto
          9 5 4 9 4 hvcurveto
          155 392 rlineto
          4 -531 hlineto
          -24 callgsubr
          44 189 callsubr
          -81 hlineto
          -7 -4 -3 -5 -1 hvcurveto
          endchar
        </CharString>
        <CharString name="N">
          0 callgsubr
          endchar
        </CharString>
        <CharString name="NULL">
          -477 endchar
        </CharString>
        <CharString name="Nacute">
          0 callgsubr
          257 836 rmoveto
          -9 618 callsubr
          2 -5 9 hhcurveto
          33 hlineto
          8 7 324 callsubr
          6 -4 6 -9 hhcurveto
          endchar
        </CharString>
        <CharString name="Ncaron">
          104 277 707 rmoveto
          35 hlineto
          9 234 callsubr
          -35 hlineto
          -6 -5 333 callgsubr
          -140 -707 rmoveto
          9 callgsubr
          endchar
        </CharString>
        <CharString name="Ntilde">
          0 callgsubr
          211 753 337 callgsubr
          6 vhcurveto
          21 hlineto
          7 3 3 8 hvcurveto
          39 vlineto
          49 -14 29 -49 -28 303 callsubr
          49 26 17 7 44 18 vhcurveto
          endchar
        </CharString>
        <CharString name="O">
          -53 callgsubr
          endchar
        </CharString>
        <CharString name="OE">
          300 229 505 callgsubr
          130 609 callgsubr
          -6 hvcurveto
          -497 vlineto
          -6 -3 -3 -8 vhcurveto
          -286 84 rmoveto
          -93 56 -55 91 vhcurveto
          473 hlineto
          11 4 5 9 hvcurveto
          36 193 callsubr
          -241 hlineto
          -7 -3 3 6 hvcurveto
          213 8 callsubr
          210 hlineto
          11 3 5 9 hvcurveto
          36 163 callsubr
          -210 hlineto
          -7 -3 3 6 hvcurveto
          202 8 callsubr
          241 hlineto
          11 4 5 9 hvcurveto
          36 193 callsubr
          -473 hlineto
          -91 407 callsubr
          endchar
        </CharString>
        <CharString name="Oacute">
          -53 callgsubr
          -3 772 215 callsubr
          7 324 callsubr
          6 -4 6 -8 hhcurveto
          endchar
        </CharString>
        <CharString name="Ocircumflex">
          -53 callgsubr
          -12 762 rmoveto
          7 -5 -6 3 -9 hhcurveto
          -35 hlineto
          -9 -6 -3 -7 -5 hvcurveto
          -63 -107 rlineto
          -7 -4 1 -5 8 359 callgsubr
          5 551 callsubr
        </CharString>
        <CharString name="Odieresis">
          -53 callgsubr
          657 vmoveto
          447 callgsubr
          43 hlineto
          9 4 185 callgsubr
          -171 -101 254 callgsubr
          9 4 185 callgsubr
          endchar
        </CharString>
        <CharString name="Ograve">
          -53 callgsubr
          -83 759 490 callgsubr
          -3 -6 -8 6 451 callgsubr
        </CharString>
        <CharString name="Ohungarumlaut">
          -53 callgsubr
          70 772 rmoveto
          -10 -6 -3 -10 -6 hvcurveto
          -56 -102 rlineto
          -9 -5 2 371 callgsubr
          7 -5 5 -9 hhcurveto
          -172 hmoveto
          -10 -6 -3 -10 -6 hvcurveto
          -56 -102 rlineto
          -9 -5 2 526 callsubr
          396 callsubr
          77 105 rlineto
          9 6 -4 5 -9 hhcurveto
          endchar
        </CharString>
        <CharString name="Omacron">
          -53 callgsubr
          50 682 rmoveto
          10 4 5 9 553 callgsubr
          -202 hlineto
          -10 467 callsubr
          -26 vlineto
          -9 4 -5 10 vhcurveto
          endchar
        </CharString>
        <CharString name="Oslash">
          88 419 151 rmoveto
          224 callsubr
          -105 hlineto
          -38 -25 14 26 -12 hvcurveto
          264 368 rlineto
          -273 20 rmoveto
          56 27 31 57 vhcurveto
          105 hlineto
          37 25 -14 -26 13 hvcurveto
          -264 -368 rlineto
          352 466 rmoveto
          -8 6 -6 -1 -7 -9 -23 -32 rcurveline
          27 -25 -38 15 -47 hhcurveto
          -123 hlineto
          -92 407 callsubr
          -347 vlineto
          -24 4 -21 7 -19 vhcurveto
          -34 -47 -6 -9 1 -7 7 -5 rlinecurve
          14 -11 8 -5 7 1 6 8 rlinecurve
          23 32 rlineto
          -26 26 38 -15 47 hhcurveto
          123 hlineto
          256 callsubr
          347 vlineto
          24 -4 21 -6 18 vhcurveto
          34 48 6 9 0 7 -8 5 rlinecurve
          endchar
        </CharString>
        <CharString name="Otilde">
          -53 callgsubr
          -38 689 337 callgsubr
          7 vhcurveto
          21 hlineto
          6 2 3 8 hvcurveto
          39 vlineto
          49 -13 29 -49 -28 456 callsubr
          -2 2 -7 vhcurveto
          -21 hlineto
          -6 -3 -2 -8 hvcurveto
          -39 vlineto
          -48 13 -29 50 25 18 7 44 17 vhcurveto
          endchar
        </CharString>
        <CharString name="P">
          49 162 301 rmoveto
          -7 -3 3 6 hvcurveto
          260 8 callsubr
          155 329 callgsubr
          -105 vlineto
          -56 -27 -30 -57 vhcurveto
          -179 -301 rmoveto
          24 callsubr
          213 8 callsubr
          165 hlineto
          256 callsubr
          111 301 callgsubr
          -91 vhcurveto
          -234 6 callsubr
          endchar
        </CharString>
        <CharString name="Q">
          83 421 -133 rmoveto
          9 6 6 10 -6 hvcurveto
          -71 119 rlineto
          79 6 49 54 86 vvcurveto
          347 300 callsubr
          -119 hlineto
          -91 407 callsubr
          -347 vlineto
          -93 56 -55 91 vhcurveto
          62 hlineto
          72 -119 rlineto
          -10 6 6 -4 14 hhcurveto
          -151 197 27 callgsubr
          endchar
        </CharString>
        <CharString name="R">
          60 162 -52 callsubr
          endchar
        </CharString>
        <CharString name="Racute">
          60 162 -52 callsubr
          209 836 215 callsubr
          7 324 callsubr
          6 -4 6 -8 hhcurveto
          endchar
        </CharString>
        <CharString name="Rcaron">
          60 162 -52 callsubr
          146 707 389 callgsubr
          -2 5 -7 hhcurveto
          -35 81 callsubr
          64 -107 rlineto
          -7 5 5 -3 10 hhcurveto
          endchar
        </CharString>
        <CharString name="S">
          78 72 148 -35 callgsubr
        </CharString>
        <CharString name="Sacute">
          78 321 836 rmoveto
          -10 -7 -4 -9 -5 hvcurveto
          -58 -102 rlineto
          -9 -5 3 294 callgsubr
          -309 -688 -35 callgsubr
        </CharString>
        <CharString name="Scaron">
          78 292 707 rmoveto
          9 241 callgsubr
          -5 333 callgsubr
          -185 -559 -35 callgsubr
        </CharString>
        <CharString name="T">
          32 callsubr
          endchar
        </CharString>
        <CharString name="Tcaron">
          32 callsubr
          7 707 235 callsubr
          -2 5 -8 hhcurveto
          -34 hlineto
          -7 -4 -2 -6 -3 hvcurveto
          -47 -88 -48 88 rlineto
          6 -2 -4 2 -8 317 callgsubr
          endchar
        </CharString>
        <CharString name="Thorn">
          25 164 hmoveto
          9 4 3 11 hvcurveto
          109 vlineto
          492 callgsubr
          106 hlineto
          256 callsubr
          82 301 callgsubr
          -91 vhcurveto
          -106 hlineto
          -8 -3 3 6 hvcurveto
          110 vlineto
          11 -4 3 -9 vhcurveto
          -46 hlineto
          -8 -5 -3 -11 hvcurveto
          -615 vlineto
          -11 5 -3 8 vhcurveto
          69 197 rmoveto
          -7 -3 3 6 hvcurveto
          231 8 callsubr
          97 329 callgsubr
          -76 vlineto
          -56 -27 -30 -57 vhcurveto
          endchar
        </CharString>
        <CharString name="U">
          -55 callgsubr
          endchar
        </CharString>
        <CharString name="Uacute">
          -55 callgsubr
          -138 193 rmoveto
          -10 -7 -4 -9 476 callgsubr
          -5 2 -5 9 hhcurveto
          33 hlineto
          7 8 4 6 4 hvcurveto
          88 581 callgsubr
          -9 hhcurveto
          endchar
        </CharString>
        <CharString name="Ucircumflex">
          -55 callgsubr
          -150 183 rmoveto
          7 -5 382 callsubr
          -34 hlineto
          -10 -5 -3 -7 -5 hvcurveto
          -64 -107 rlineto
          -7 -4 2 -5 9 hhcurveto
          33 hlineto
          7 601 callsubr
          48 -88 rlineto
          -6 3 3 -2 8 471 callgsubr
        </CharString>
        <CharString name="Udieresis">
          -55 callgsubr
          -138 78 182 callsubr
        </CharString>
        <CharString name="Ugrave">
          -55 callgsubr
          -217 180 rmoveto
          9 -5 -7 4 -9 hhcurveto
          -61 hlineto
          -8 199 callgsubr
          8 3 407 callgsubr
        </CharString>
        <CharString name="Uhungarumlaut">
          -55 callgsubr
          -72 193 rmoveto
          -9 367 callgsubr
          -5 5 -8 149 callsubr
        </CharString>
        <CharString name="Umacron">
          -55 callgsubr
          -88 103 rmoveto
          10 4 5 9 hvcurveto
          26 vlineto
          9 -4 5 -10 239 callgsubr
        </CharString>
        <CharString name="Uogonek">
          77 421 643 rmoveto
          166 callsubr
          -478 163 callgsubr
          -94 165 callgsubr
          478 vlineto
          -75 callgsubr
          -481 vlineto
          -93 56 -55 608 callsubr
          -47 425 callgsubr
          16 hlineto
          256 callsubr
          482 565 callsubr
          -10 vhcurveto
          endchar
        </CharString>
        <CharString name="Uring">
          -55 callgsubr
          -196 87 rmoveto
          -27 -12 14 29 hvcurveto
          23 vlineto
          29 12 14 27 vhcurveto
          13 hlineto
          28 11 -14 -29 hvcurveto
          -23 vlineto
          -29 -11 -14 -28 vhcurveto
          9 -33 rmoveto
          42 26 25 43 hvcurveto
          41 vlineto
          42 -26 24 -42 vhcurveto
          -31 hlineto
          -42 -24 -24 -42 hvcurveto
          -41 vlineto
          -43 24 -25 42 vhcurveto
          endchar
        </CharString>
        <CharString name="V">
          29 289 hmoveto
          8 5 3 11 3 hvcurveto
          177 614 rlineto
          10 2 -4 5 -10 hhcurveto
          -50 -32 callsubr
          -2 hvcurveto
          -149 -547 rlineto
          -4 hlineto
          -149 547 rlineto
          11 -2 -4 3 -10 hhcurveto
          -49 hlineto
          -11 -4 -5 -10 2 hvcurveto
          177 -614 rlineto
          -11 3 5 -3 9 hhcurveto
          endchar
        </CharString>
        <CharString name="W">
          320 249 hmoveto
          8 6 4 10 2 hvcurveto
          132 537 rlineto
          4 hlineto
          131 -537 rlineto
          -9 2 6 -5 9 hhcurveto
          77 hlineto
          9 5 4 10 2 hvcurveto
          129 614 rlineto
          10 2 -5 5 -10 hhcurveto
          -54 hlineto
          -9 -6 -4 -11 -2 hvcurveto
          -100 -550 rlineto
          -6 hlineto
          -137 552 rlineto
          10 -2 -6 3 -8 hhcurveto
          -60 hlineto
          -7 -7 -3 -10 -2 hvcurveto
          -135 -552 rlineto
          -6 hlineto
          -101 551 rlineto
          11 -1 -6 3 -9 hhcurveto
          -54 hlineto
          -10 -5 -5 -9 2 hvcurveto
          128 -615 rlineto
          -11 2 6 -3 9 hhcurveto
          endchar
        </CharString>
        <CharString name="X">
          37 402 13 rmoveto
          -10 4 6 -3 9 hhcurveto
          53 hlineto
          9 4 7 8 -5 hvcurveto
          -174 322 167 291 rlineto
          8 4 -4 7 -9 hhcurveto
          -52 568 callsubr
          -11 -6 hvcurveto
          -132 -246 rlineto
          -4 hlineto
          -134 246 rlineto
          11 -5 -8 3 -9 hhcurveto
          -50 hlineto
          -9 -5 -7 -8 5 hvcurveto
          166 -292 -175 -321 rlineto
          -8 -4 4 -7 9 hhcurveto
          52 hlineto
          9 6 3 10 5 hvcurveto
          142 268 rlineto
          4 hlineto
          endchar
        </CharString>
        <CharString name="Y">
          62 callgsubr
          endchar
        </CharString>
        <CharString name="Yacute">
          62 callgsubr
          74 836 rmoveto
          -9 151 callgsubr
          7 -5 6 -8 hhcurveto
          endchar
        </CharString>
        <CharString name="Ydieresis">
          62 callgsubr
          74 721 141 callsubr
          -171 -101 141 callsubr
          endchar
        </CharString>
        <CharString name="Z">
          0 callsubr
          endchar
        </CharString>
        <CharString name="Zacute">
          0 callsubr
          271 786 rmoveto
          -10 -7 -4 -9 -5 hvcurveto
          -58 -102 rlineto
          -9 -4 2 426 callgsubr
        </CharString>
        <CharString name="Zcaron">
          0 callsubr
          203 657 235 callsubr
          -1 5 -9 hhcurveto
          -34 81 callsubr
          64 -107 rlineto
          -7 5 5 -3 10 hhcurveto
          endchar
        </CharString>
        <CharString name="Zdotaccent">
          0 callsubr
          188 675 rmoveto
          -10 4 -4 299 callgsubr
          4 10 hvcurveto
          97 vlineto
          10 -4 4 -9 vhcurveto
          -46 280 callgsubr
          endchar
        </CharString>
        <CharString name="a">
          30 -58 callsubr
          endchar
        </CharString>
        <CharString name="aacute">
          30 -58 callsubr
          109 703 rmoveto
          -10 -7 376 callgsubr
          2 -5 9 hhcurveto
          32 hlineto
          8 7 160 callgsubr
          -9 hhcurveto
          endchar
        </CharString>
        <CharString name="abreve">
          30 167 680 rmoveto
          -72 33 -34 62 vhcurveto
          18 hlineto
          62 428 callsubr
          -14 -19 -40 vhcurveto
          -5 hlineto
          -38 -15 483 callgsubr
          92 -692 -2 callgsubr
          -217 -42 callgsubr
          158 156 rmoveto
          -58 -32 -34 -61 vhcurveto
          -57 50 callsubr
          endchar
        </CharString>
        <CharString name="acircumflex">
          30 -58 callsubr
          95 196 callsubr
        </CharString>
        <CharString name="acute">
          -200 145 703 304 callsubr
        </CharString>
        <CharString name="adieresis">
          30 -58 callsubr
          114 174 callsubr
        </CharString>
        <CharString name="ae">
          307 360 152 rmoveto
          -61 -34 -30 -59 vhcurveto
          -53 hlineto
          -59 -29 30 58 hvcurveto
          18 vlineto
          57 28 30 60 vhcurveto
          136 174 callgsubr
          301 21 522 callsubr
          -209 hlineto
          -7 -3 3 7 hvcurveto
          96 vlineto
          57 34 27 55 vhcurveto
          56 379 callsubr
          -229 -165 rmoveto
          6 3 3 7 vhcurveto
          270 hlineto
          10 4 4 11 hvcurveto
          144 301 callgsubr
          -91 vhcurveto
          -61 hlineto
          -49 -48 -15 -48 -24 hvcurveto
          47 -24 -49 16 -50 hhcurveto
          -155 127 callsubr
          -36 116 callsubr
          157 hlineto
          54 29 -29 -57 hvcurveto
          -42 vlineto
          -5 -2 -3 -6 vhcurveto
          -146 hlineto
          -92 -56 -52 -93 hvcurveto
          -20 vlineto
          -91 58 -54 90 vhcurveto
          48 hlineto
          58 50 16 48 24 hvcurveto
          -45 24 40 -19 58 hhcurveto
          205 351 callgsubr
          37 163 callsubr
          -196 575 callsubr
          endchar
        </CharString>
        <CharString name="agrave">
          30 -58 callsubr
          42 690 rmoveto
          9 -5 -7 4 -9 hhcurveto
          -61 hlineto
          -8 -5 -6 -8 7 451 callgsubr
        </CharString>
        <CharString name="amacron">
          30 -58 callsubr
          171 613 131 callsubr
        </CharString>
        <CharString name="ampersand">
          126 461 10 rmoveto
          -7 6 9 -3 8 hhcurveto
          58 hlineto
          7 0 7 4 -3 hvcurveto
          -194 227 rlineto
          180 hlineto
          11 4 4 9 hvcurveto
          37 193 callsubr
          -234 hlineto
          -58 67 rlineto
          -29 32 -15 28 38 vvcurveto
          29 vlineto
          56 28 29 55 vhcurveto
          16 hlineto
          52 28 -29 -56 hvcurveto
          -41 328 callsubr
          45 hlineto
          9 4 4 11 hvcurveto
          42 vlineto
          93 -56 53 -91 vhcurveto
          -27 hlineto
          -91 -60 -53 -93 hvcurveto
          -29 vlineto
          -47 14 -34 30 -36 vhcurveto
          -74 -5 -30 -63 -60 vvcurveto
          -77 vlineto
          -93 56 -53 91 vhcurveto
          75 hlineto
          65 41 24 49 17 hvcurveto
          -189 -8 rmoveto
          -57 -29 28 56 hvcurveto
          70 vlineto
          57 23 29 49 3 vhcurveto
          157 -183 rlineto
          -40 -7 -26 -20 -44 hhcurveto
          endchar
        </CharString>
        <CharString name="aogonek">
          30 215 64 rmoveto
          20 callsubr
          140 174 callgsubr
          -281 vlineto
          244 callgsubr
          -65 446 rmoveto
          -92 407 callsubr
          -214 vlineto
          -93 56 -55 608 callsubr
          51 36 21 32 15 hvcurveto
          4 -36 hlineto
          -53 -77 rlineto
          -20 -15 2 -34 33 hhcurveto
          35 42 15 19 1 hvcurveto
          10 2 -6 3 -19 hhcurveto
          -1 -7 -23 -1 -10 hhcurveto
          -2 31 46 23 17 hvcurveto
          31 86 callgsubr
          endchar
        </CharString>
        <CharString name="apostrophemod">
          -296 125 630 106 callgsubr
          endchar
        </CharString>
        <CharString name="approxequal">
          58 170 393 rmoveto
          190 callsubr
          -171 vmoveto
          190 callsubr
          endchar
        </CharString>
        <CharString name="aring">
          30 179 615 rmoveto
          -42 21 449 callgsubr
          -21 -17 -41 hvcurveto
          32 362 callgsubr
          48 -623 -2 callgsubr
          -217 -42 callgsubr
          158 156 rmoveto
          -58 -32 -34 -61 vhcurveto
          -57 50 callsubr
          endchar
        </CharString>
        <CharString name="asciicircum">
          2 353 378 rmoveto
          -10 6 4 -4 10 hhcurveto
          40 hlineto
          10 6 5 11 -6 hvcurveto
          -128 243 rlineto
          15 -7 -7 5 -16 hhcurveto
          -52 hlineto
          -16 -7 -5 -15 -7 hvcurveto
          -128 -243 rlineto
          -11 -6 6 -5 10 hhcurveto
          40 hlineto
          10 4 4 10 6 hvcurveto
          114 219 rlineto
          endchar
        </CharString>
        <CharString name="asciitilde">
          58 170 309 rmoveto
          57 74 -30 62 hhcurveto
          30 29 6 9 22 hvcurveto
          16 7 5 5 12 vvcurveto
          31 vlineto
          7 -4 5 -6 vhcurveto
          -13 -32 -25 -45 -63 -68 31 -62 hhcurveto
          -30 -29 -6 -9 -22 hvcurveto
          -15 -7 -6 -5 -13 vvcurveto
          -30 vlineto
          -7 4 -5 7 vhcurveto
          13 32 24 44 hhcurveto
          endchar
        </CharString>
        <CharString name="asterisk">
          -73 230 630 rmoveto
          10 46 callgsubr
          -30 hlineto
          -9 -4 -3 -10 hvcurveto
          -14 vlineto
          -57 26 -51 3 -9 vhcurveto
          5 9 23 51 57 vvcurveto
          -127 -206 rmoveto
          -6 -9 2 -6 7 -4 24 -18 rcurveline
          8 -5 6 0 5 7 8 12 rcurveline
          34 46 8 57 3 9 -9 -5 -48 -27 -34 -47 rrcurveto
          -24 145 rmoveto
          -10 3 -5 -3 -2 -8 -10 -29 rcurveline
          -3 -8 3 -6 8 -3 14 -4 rcurveline
          -18 54 57 10 9 hhcurveto
          -7 7 -41 37 -55 18 rrcurveto
          236 -48 rmoveto
          10 3 2 6 -3 8 -9 29 rcurveline
          -3 9 -4 2 -10 -3 -14 -4 rcurveline
          -55 -17 -39 -41 -8 -6 10 -2 56 -6 54 18 rrcurveto
          -66 -132 rmoveto
          7 -8 5 1 7 4 25 18 rcurveline
          7 5 1 6 -5 7 -8 12 rcurveline
          -34 46 -51 25 -8 6 1 -10 11 -55 35 -46 rrcurveto
          endchar
        </CharString>
        <CharString name="at">
          274 462 233 rmoveto
          -58 -32 -34 -60 vhcurveto
          -2 575 callsubr
          88 vlineto
          56 28 31 56 vhcurveto
          84 hlineto
          8 2 -3 -7 hvcurveto
          46 -451 rmoveto
          329 callsubr
          20 326 callsubr
          -182 hlineto
          -111 -91 78 127 hvcurveto
          157 vlineto
          127 87 78 111 vhcurveto
          191 hlineto
          70 48 -40 -73 hvcurveto
          -221 vlineto
          -59 -31 -32 -57 vhcurveto
          -5 hlineto
          -8 -6 3 7 hvcurveto
          305 88 callgsubr
          -151 hlineto
          -84 407 callsubr
          -84 vlineto
          -92 56 -52 79 38 46 11 42 20 vhcurveto
          4 -15 hlineto
          -26 22 -13 23 vhcurveto
          39 hlineto
          79 55 53 81 hvcurveto
          230 vlineto
          92 -66 64 -97 vhcurveto
          -198 hlineto
          -129 -115 -97 -152 hvcurveto
          -165 vlineto
          -157 120 -90 132 vhcurveto
          endchar
        </CharString>
        <CharString name="atilde">
          31 -58 callsubr
          -46 653 rmoveto
          -49 14 -28 49 26 17 6 44 18 242 callsubr
          6 vhcurveto
          21 hlineto
          7 438 callgsubr
          -50 -27 215 callgsubr
          -3 2 -6 vhcurveto
          -21 hlineto
          -7 -3 -2 -9 hvcurveto
          endchar
        </CharString>
        <CharString name="b">
          33 69 515 callsubr
          221 hlineto
          256 callsubr
          221 vlineto
          92 -56 571 callsubr
          226 55 callsubr
          83 -625 rmoveto
          -7 -3 3 6 hvcurveto
          288 vlineto
          57 32 34 61 vhcurveto
          59 hlineto
          57 28 -30 -57 hvcurveto
          -214 vlineto
          -56 -28 -31 -57 vhcurveto
          endchar
        </CharString>
        <CharString name="backslash">
          -77 275 15 rmoveto
          -11 5 620 callsubr
          42 hlineto
          9 6 5 11 -4 hvcurveto
          -28 73 -166 466 -28 73 rrcurveto
          10 -5 -4 5 -10 hhcurveto
          -43 hlineto
          -10 -4 -6 -11 4 hvcurveto
          endchar
        </CharString>
        <CharString name="bar">
          -263 134 629 rmoveto
          -36 callgsubr
          -27 hlineto
          -9 -4 -3 -11 hvcurveto
          -615 579 callsubr
          27 hlineto
          24 callsubr
          endchar
        </CharString>
        <CharString name="braceleft">
          -174 227 643 rmoveto
          -85 -39 -55 -93 hvcurveto
          -123 vlineto
          -52 -20 -18 -36 -11 -3 -5 -9 vhcurveto
          -36 vlineto
          -9 3 -5 11 36 20 -18 -51 vhcurveto
          -123 vlineto
          -93 39 -55 85 vhcurveto
          5 hlineto
          329 callsubr
          27 163 callsubr
          -3 hlineto
          -51 -14 30 57 hvcurveto
          134 vlineto
          50 -19 35 -38 11 vhcurveto
          39 13 18 32 52 vvcurveto
          134 vlineto
          57 14 30 51 vhcurveto
          3 hlineto
          329 callsubr
          27 163 callsubr
          endchar
        </CharString>
        <CharString name="braceright">
          -174 176 495 rmoveto
          93 -39 55 -85 vhcurveto
          -5 127 callsubr
          -27 116 callsubr
          3 hlineto
          50 15 -30 -57 hvcurveto
          -134 vlineto
          -52 18 -32 39 -13 vhcurveto
          -38 -11 -19 -35 -50 vvcurveto
          -134 vlineto
          -57 -15 -30 -50 vhcurveto
          -3 127 callsubr
          -27 116 callsubr
          5 hlineto
          85 39 55 93 hvcurveto
          123 vlineto
          51 20 18 36 11 3 5 9 vhcurveto
          36 311 callgsubr
          -36 -20 18 52 vhcurveto
          endchar
        </CharString>
        <CharString name="bracketleft">
          -180 217 -100 rmoveto
          10 4 5 8 553 callgsubr
          -78 hlineto
          -7 -3 3 7 hvcurveto
          617 378 callsubr
          78 hlineto
          491 callsubr
          25 173 callsubr
          -136 hlineto
          -10 221 callsubr
          -715 vlineto
          -10 4 -13 callgsubr
          endchar
        </CharString>
        <CharString name="bracketright">
          -180 60 -87 rmoveto
          -8 268 callsubr
          136 hlineto
          9 4 4 10 hvcurveto
          715 vlineto
          10 -4 4 -9 vhcurveto
          -136 127 callsubr
          -25 116 callsubr
          78 hlineto
          7 3 -3 -7 hvcurveto
          -617 218 callsubr
          -78 127 callsubr
          endchar
        </CharString>
        <CharString name="breve">
          -143 63 680 rmoveto
          -72 32 -34 63 vhcurveto
          17 hlineto
          63 33 313 callsubr
          -3 3 -7 vhcurveto
          -28 hlineto
          -7 -3 -3 -8 hvcurveto
          endchar
        </CharString>
        <CharString name="brokenbar">
          -268 133 255 rmoveto
          -36 callgsubr
          -29 -32 callsubr
          hvcurveto
          -241 -14 callsubr
          29 hlineto
          24 callsubr
          615 vmoveto
          -36 callgsubr
          -29 -32 callsubr
          hvcurveto
          -241 -14 callsubr
          29 hlineto
          24 callsubr
          endchar
        </CharString>
        <CharString name="bullet">
          -198 197 372 rmoveto
          23 -14 13 -22 vhcurveto
          -43 hlineto
          -23 -13 -13 -23 hvcurveto
          -105 vlineto
          -24 13 -12 23 vhcurveto
          43 hlineto
          22 14 12 24 hvcurveto
          endchar
        </CharString>
        <CharString name="c">
          72 callgsubr
          endchar
        </CharString>
        <CharString name="cacute">
          72 callgsubr
          -88 690 rmoveto
          -9 -7 -4 -9 -6 hvcurveto
          -57 221 callgsubr
        </CharString>
        <CharString name="caron">
          -145 148 574 rmoveto
          34 hlineto
          10 234 callsubr
          -35 hlineto
          -6 -5 -2 -6 -3 hvcurveto
          -47 370 callsubr
          endchar
        </CharString>
        <CharString name="ccaron">
          72 callgsubr
          -146 561 89 callsubr
        </CharString>
        <CharString name="ccedilla">
          -78 352 446 rmoveto
          347 callsubr
          -145 -42 callgsubr
          26 hlineto
          -37 -42 461 callgsubr
          -7 -24 hvcurveto
          -2 vlineto
          -21 -12 -8 -39 vhcurveto
          -23 hlineto
          -11 -2 -3 -10 hvcurveto
          -14 vlineto
          -9 2 -4 11 vhcurveto
          30 hlineto
          54 542 callsubr
          41 43 rlineto
          66 hlineto
          11 3 4 9 hvcurveto
          37 vlineto
          191 callgsubr
          endchar
        </CharString>
        <CharString name="cedilla">
          -218 70 -42 rmoveto
          -18 -15 9 -26 24 hhcurveto
          16 hlineto
          39 11 -7 -24 hvcurveto
          -2 vlineto
          -21 -12 -8 -38 318 callgsubr
          516 callgsubr
          -28 17 -48 vhcurveto
          4 vlineto
          59 63 rlineto
          -54 hlineto
          endchar
        </CharString>
        <CharString name="cent">
          -58 276 -91 rmoveto
          8 5 3 10 hvcurveto
          78 78 vlineto
          11 4 5 9 hvcurveto
          37 vlineto
          8 -4 5 -11 vhcurveto
          -152 34 callgsubr
          152 hlineto
          11 4 5 8 hvcurveto
          37 vlineto
          9 -12 5 -10 vhcurveto
          -71 88 hlineto
          9 -5 4 -8 vhcurveto
          -36 hlineto
          -8 232 callsubr
          -87 -26 vlineto
          -88 -54 -57 -91 hvcurveto
          -214 vlineto
          -91 54 -57 88 vhcurveto
          26 -77 hlineto
          -10 5 -4 8 vhcurveto
          endchar
        </CharString>
        <CharString name="circumflex">
          -145 203 693 rmoveto
          7 -5 382 callsubr
          -34 hlineto
          -9 -6 -3 -7 -5 hvcurveto
          -63 -107 rlineto
          -7 -4 1 -5 8 594 callgsubr
          47 -88 rlineto
          -6 3 5 -2 6 hhcurveto
          35 463 callgsubr
        </CharString>
        <CharString name="colon">
          -283 136 135 249 callgsubr
          8 5 4 10 hvcurveto
          483 vmoveto
          369 callgsubr
          endchar
        </CharString>
        <CharString name="comma">
          308 callgsubr
          -226 vlineto
          -10 5 -3 5 5 4 3 5 3 vhcurveto
          40 94 rlineto
          10 24 5 15 19 vvcurveto
          endchar
        </CharString>
        <CharString name="copyright">
          240 200 643 rmoveto
          -79 -51 -50 -81 hvcurveto
          -381 vlineto
          -81 51 -50 79 vhcurveto
          317 hlineto
          80 51 50 81 hvcurveto
          381 vlineto
          81 -51 50 -80 vhcurveto
          -306 -595 rmoveto
          -59 -30 31 59 hvcurveto
          367 vlineto
          59 30 31 59 vhcurveto
          295 hlineto
          59 30 -31 -59 hvcurveto
          -367 vlineto
          -59 -30 -31 -59 vhcurveto
          -13 354 rmoveto
          78 -42 34 -76 vhcurveto
          -34 hlineto
          -76 -42 -34 -78 hvcurveto
          -165 vlineto
          -77 42 -35 76 vhcurveto
          34 hlineto
          76 42 35 77 hvcurveto
          26 vlineto
          9 -4 2 -6 vhcurveto
          -32 hlineto
          -6 -4 -2 -9 hvcurveto
          -19 vlineto
          -59 -18 -13 -58 vhcurveto
          -14 hlineto
          -58 -18 13 59 hvcurveto
          152 vlineto
          58 18 14 58 vhcurveto
          14 hlineto
          58 18 -14 -58 hvcurveto
          -16 vlineto
          -8 4 -3 6 vhcurveto
          32 hlineto
          6 4 3 8 hvcurveto
          endchar
        </CharString>
        <CharString name="currency">
          19 238 322 rmoveto
          -3 3 -2 0 -2 -3 -20 -17 rcurveline
          16 -25 25 21 2 2 0 2 -3 3 rlinecurve
          -5 23 rmoveto
          -3 -2 -1 -2 4 -4 12 -12 rcurveline
          4 -4 1 1 3 2 23 20 rcurveline
          -25 18 rlineto
          -38 -151 rmoveto
          -56 -28 30 57 hvcurveto
          61 vlineto
          57 28 30 56 vhcurveto
          44 hlineto
          57 28 -30 -57 hvcurveto
          -61 vlineto
          -57 -28 -30 -57 vhcurveto
          137 2 rmoveto
          12 23 7 27 32 vvcurveto
          71 vlineto
          93 -56 51 -91 vhcurveto
          -61 hlineto
          -32 -28 -6 -12 -22 hvcurveto
          -55 53 -8 8 -6 -1 -7 -7 rlinecurve
          -24 -25 -7 -7 -1 -6 8 -8 rlinecurve
          53 -52 rlineto
          -12 -21 -7 -28 -32 vvcurveto
          -71 vlineto
          -92 56 -55 92 vhcurveto
          61 hlineto
          32 27 7 12 23 hvcurveto
          54 -52 9 -8 6 1 7 8 rlinecurve
          24 24 7 7 1 6 -8 8 rlinecurve
          endchar
        </CharString>
        <CharString name="d">
          33 108 callsubr
          endchar
        </CharString>
        <CharString name="dagger">
          -56 216 hmoveto
          9 5 3 11 1 hvcurveto
          4 27 11 223 60 vvcurveto
          32 -4 46 -6 22 177 callsubr
          129 9 rlineto
          -5 -24 -4 -47 -28 vvcurveto
          -61 11 -223 4 -27 vhcurveto
          -11 1 5 -3 9 hhcurveto
          endchar
        </CharString>
        <CharString name="daggerdbl">
          -56 182 424 rmoveto
          -5 -25 -3 -50 -29 vvcurveto
          -30 3 -48 5 -24 vhcurveto
          -129 9 rlineto
          -11 1 -3 -6 -9 vvcurveto
          -39 vlineto
          -9 3 -5 11 2 vhcurveto
          131 9 -11 -157 rlineto
          -11 -1 6 -3 9 hhcurveto
          45 hlineto
          24 callsubr
          -11 158 133 -10 rlineto
          11 -2 3 5 9 vvcurveto
          39 vlineto
          9 -3 6 -11 -1 vhcurveto
          -132 -10 rlineto
          6 24 4 47 31 vvcurveto
          32 -4 50 -6 23 177 callsubr
          endchar
        </CharString>
        <CharString name="danda">
          -184 135 15 204 callsubr
          endchar
        </CharString>
        <CharString name="dcaron">
          86 108 callsubr
          365 690 243 callsubr
          -44 hlineto
          -8 474 callsubr
          5 -2 6 4 4 2 5 3 vhcurveto
          33 95 rlineto
          9 24 6 17 24 vvcurveto
          endchar
        </CharString>
        <CharString name="dcroat">
          69 369 156 rmoveto
          -58 -33 -34 -60 vhcurveto
          -61 165 callgsubr
          145 vlineto
          57 27 30 56 vhcurveto
          61 hlineto
          60 33 -34 -57 hvcurveto
          -107 -292 rmoveto
          52 96 callgsubr
          4 400 callsubr
          526 vlineto
          7 563 callgsubr
          60 hlineto
          11 4 4 9 hvcurveto
          30 565 callsubr
          -11 vhcurveto
          -60 hlineto
          -8 -3 3 7 hvcurveto
          73 vlineto
          11 -4 236 callsubr
          -3 -11 hvcurveto
          -73 202 callgsubr
          -152 hlineto
          -10 534 callgsubr
          -30 vlineto
          -9 3 -13 callgsubr
          152 377 callsubr
          -146 -4 vlineto
          32 -15 -36 21 -52 hhcurveto
          -55 hlineto
          -92 -56 -55 -92 hvcurveto
          -152 vlineto
          -93 56 -55 92 vhcurveto
          endchar
        </CharString>
        <CharString name="degree">
          -156 167 545 rmoveto
          -13 hlineto
          -24 -5 6 23 hvcurveto
          65 vlineto
          24 5 5 24 vhcurveto
          13 hlineto
          23 6 -5 -24 hvcurveto
          -65 vlineto
          -23 -6 -6 -23 vhcurveto
          17 -34 rmoveto
          30 20 18 31 hvcurveto
          97 vlineto
          30 -20 17 -30 vhcurveto
          -48 hlineto
          -31 -18 -17 -30 hvcurveto
          -97 vlineto
          -31 18 -18 31 vhcurveto
          endchar
        </CharString>
        <CharString name="dieresis">
          -111 233 588 rmoveto
          530 callgsubr
          42 hlineto
          9 5 137 callgsubr
          -9 vhcurveto
          -42 201 callgsubr
          -170 -101 442 callsubr
          42 hlineto
          9 5 137 callgsubr
          -9 vhcurveto
          -42 280 callgsubr
          endchar
        </CharString>
        <CharString name="divide">
          19 221 433 rmoveto
          530 callgsubr
          27 hlineto
          531 callsubr
          58 262 callgsubr
          -27 201 callgsubr
          188 -197 619 callgsubr
          4 -11 vhcurveto
          -321 hlineto
          -11 -4 -4 -9 hvcurveto
          -26 283 callgsubr
          133 -143 520 callsubr
          27 hlineto
          24 callsubr
          57 88 callgsubr
          -27 -32 callsubr
          hvcurveto
          endchar
        </CharString>
        <CharString name="dollar">
          34 281 -98 rmoveto
          24 callsubr
          84 7 vlineto
          90 57 56 92 hvcurveto
          58 vlineto
          116 -69 30 -79 3 vhcurveto
          -62 2 rlineto
          -65 2 -39 16 64 vvcurveto
          47 vlineto
          64 28 30 61 vhcurveto
          59 hlineto
          61 28 -30 -60 hvcurveto
          -19 vlineto
          -11 243 callgsubr
          11 hvcurveto
          25 vlineto
          91 -56 57 -87 vhcurveto
          -7 85 hlineto
          -36 callgsubr
          -34 -32 callsubr
          hvcurveto
          -85 -24 vlineto
          -91 -56 -56 -92 hvcurveto
          -55 vlineto
          -120 71 -27 83 -3 vhcurveto
          55 -1 rlineto
          64 -3 41 -17 -67 vvcurveto
          -47 vlineto
          -62 -29 -30 -60 vhcurveto
          -63 hlineto
          -60 -29 30 60 hvcurveto
          22 vlineto
          11 -4 236 callsubr
          -3 -11 hvcurveto
          -28 vlineto
          -91 56 -57 90 vhcurveto
          24 -84 hlineto
          -24 callgsubr
          endchar
        </CharString>
        <CharString name="dotaccent">
          -279 63 590 rmoveto
          -10 4 -4 299 callgsubr
          4 10 hvcurveto
          98 vlineto
          10 -5 3 -8 vhcurveto
          -46 280 callgsubr
          endchar
        </CharString>
        <CharString name="dotlessi">
          -252 76 14 rmoveto
          -11 5 -3 8 vhcurveto
          46 hlineto
          10 3 3 11 hvcurveto
          482 vlineto
          11 -4 236 callsubr
          -3 -11 hvcurveto
          endchar
        </CharString>
        <CharString name="dottedcircle">
          183 139 517 rmoveto
          -26 18 -19 26 26 18 19 26 25 -18 19 -26 -26 -18 -19 -25 vhcurveto
          -82 -110 rmoveto
          -25 20 -19 26 24 20 19 25 25 -20 19 -24 -26 -20 -19 -25 vhcurveto
          -13 -126 rmoveto
          -25 19 -18 25 26 18 18 612 callsubr
          52 -116 rmoveto
          -26 18 -18 26 25 19 18 26 25 -19 19 -25 -26 -18 -19 -25 vhcurveto
          101 -75 rmoveto
          -26 19 -20 26 25 19 20 26 24 -19 20 -25 -26 -19 -20 -24 vhcurveto
          127 -16 rmoveto
          -26 18 -18 26 26 19 18 26 26 -19 18 -26 -26 -18 -18 -26 vhcurveto
          121 53 rmoveto
          -26 19 -18 25 25 20 18 26 25 -20 19 -25 -25 -19 -19 -25 vhcurveto
          73 98 rmoveto
          -25 19 -19 26 24 19 19 25 26 -19 19 -24 -26 -19 -19 -26 vhcurveto
          10 134 rmoveto
          -26 18 -18 26 25 19 18 26 26 -19 18 -25 -26 -18 -18 -26 vhcurveto
          -50 118 rmoveto
          -25 19 -19 25 26 18 19 612 callsubr
          -95 68 rmoveto
          -24 19 -20 26 25 18 20 24 26 -18 19 -25 -26 -19 -19 -26 vhcurveto
          -126 15 rmoveto
          -26 18 -18 26 26 18 18 26 26 -18 18 -26 -26 -18 -18 -26 vhcurveto
          endchar
        </CharString>
        <CharString name="doubledanda">
          49 135 15 204 callsubr
          233 -593 204 callsubr
          endchar
        </CharString>
        <CharString name="dvA">
          124 479 -29 callgsubr
          75 hlineto
          12 -107 callsubr
          -12 vhcurveto
          endchar
        </CharString>
        <CharString name="dvAA">
          356 478 623 rmoveto
          -31 callsubr
          2 -4 -6 hvcurveto
          -538 vlineto
          -11 6 -4 9 vhcurveto
          39 hlineto
          10 5 4 11 hvcurveto
          538 -103 callsubr
          endchar
        </CharString>
        <CharString name="dvAI">
          47 469 623 rmoveto
          -14 -3 132 callsubr
          41 -61 39 -49 32 -35 rlinecurve
          -399 -84 callsubr
          75 -100 callgsubr
          -361 vlineto
          -95 61 -67 102 vhcurveto
          171 hlineto
          11 1 4 4 11 vvcurveto
          32 vlineto
          566 callsubr
          vhcurveto
          -160 hlineto
          -69 -37 37 65 hvcurveto
          358 385 callsubr
          8 vhcurveto
          222 -100 callgsubr
          -131 vlineto
          -66 -35 -18 -49 vhcurveto
          -33 hlineto
          -11 252 callgsubr
          40 hlineto
          88 57 45 100 hvcurveto
          131 385 callsubr
          8 vhcurveto
          55 -101 callsubr
          endchar
        </CharString>
        <CharString name="dvAU">
          357 760 623 rmoveto
          -6 -2 4 7 hvcurveto
          229 vlineto
          12 -5 3 -10 vhcurveto
          -36 35 callsubr
          -41 vlineto
          -74 13 -69 15 -34 vhcurveto
          -3 -2 -137 222 rlineto
          9 -5 -6 4 -15 hhcurveto
          -37 hlineto
          -8 -5 -5 -7 -4 1 -3 3 -4 hvcurveto
          59 -87 47 -67 48 -56 24 -18 rlinecurve
          -4 -201 vlineto
          -31 callsubr
          3 -4 -6 hvcurveto
          -538 vlineto
          -11 5 -13 callgsubr
          38 hlineto
          10 5 4 11 hvcurveto
          538 -103 callsubr
          endchar
        </CharString>
        <CharString name="dvAbbreviationsign">
          -71 365 291 rmoveto
          41 vlineto
          89 -54 53 -89 vhcurveto
          -37 hlineto
          -89 -54 -53 -89 hvcurveto
          -41 vlineto
          -89 54 -53 89 vhcurveto
          37 hlineto
          89 54 53 89 hvcurveto
          -256 3 rmoveto
          35 vlineto
          58 26 30 59 vhcurveto
          19 hlineto
          58 27 -30 -58 hvcurveto
          -35 vlineto
          -58 -27 -30 -58 vhcurveto
          -19 hlineto
          -59 -26 30 58 hvcurveto
          endchar
        </CharString>
        <CharString name="dvAcandra">
          124 479 -29 callgsubr
          75 hlineto
          12 -107 callsubr
          -12 vhcurveto
          -5 218 rmoveto
          268 callgsubr
          81 hlineto
          80 39 43 83 hvcurveto
          5 403 callsubr
          endchar
        </CharString>
        <CharString name="dvAnusvara">
          -477 -82 790 rmoveto
          10 342 callsubr
          -46 hlineto
          306 callsubr
          endchar
        </CharString>
        <CharString name="dvAnusvara.amI">
          -477 113 353 callgsubr
          endchar
        </CharString>
        <CharString name="dvAvagraha">
          57 453 202 rmoveto
          78 -32 26 -106 53 vhcurveto
          -98 49 -32 31 49 vvcurveto
          54 15 21 64 vhcurveto
          134 -104 callgsubr
          -145 hlineto
          -109 -28 -40 -96 -79 29 -45 102 -52 hvcurveto
          87 -43 51 -15 -55 vvcurveto
          -50 vlineto
          -52 -16 -34 -66 vhcurveto
          -51 hlineto
          -58 -26 37 39 -36 hvcurveto
          5 -5 -5 4 -6 hhcurveto
          -4 -3 -1 -5 -6 hvcurveto
          -15 -12 rlineto
          -6 -5 -3 -4 -6 vvcurveto
          -5 3 -5 3 -3 vhcurveto
          -41 30 51 -60 84 hhcurveto
          62 hlineto
          96 45 54 89 hvcurveto
          endchar
        </CharString>
        <CharString name="dvB">
          -207 469 callsubr
          202 157 callgsubr
          105 128 rmoveto
          -10 -5 -3 -12 hvcurveto
          -22 451 callsubr
          -1 -8 -17 callgsubr
          -94 -56 -56 -93 310 callgsubr
          -56 608 callsubr
          87 55 55 99 hvcurveto
          19 349 callsubr
          -389 353 -95 callgsubr
          391 -101 callsubr
          endchar
        </CharString>
        <CharString name="dvBA">
          23 211 142 50 callgsubr
          -260 42 callsubr
          342 -19 callgsubr
          -94 -55 -56 -93 -1 310 callgsubr
          -55 93 vhcurveto
          42 381 callsubr
          15 hvcurveto
          4 -111 hlineto
          -11 6 -5 9 vhcurveto
          39 hlineto
          9 6 -83 callsubr
          endchar
        </CharString>
        <CharString name="dvBH">
          -211 360 275 rmoveto
          -102 callgsubr
          -208 hlineto
          5 callgsubr
          207 288 rmoveto
          -102 callgsubr
          -95 hlineto
          -10 -105 callgsubr
          10 vhcurveto
          endchar
        </CharString>
        <CharString name="dvBHA">
          20 336 275 rmoveto
          7 3 -4 -7 hvcurveto
          -249 -60 callsubr
          -231 hlineto
          46 callsubr
          -9 -84 callsubr
          9 hlineto
          43 25 -22 -53 99 callgsubr
          endchar
        </CharString>
        <CharString name="dvBH_LA">
          458 265 623 rmoveto
          -9 -5 -4 -8 -1 hvcurveto
          -1 vlineto
          0 vlineto
          0 vlineto
          0 593 callsubr
          -30 387 callsubr
          509 343 callgsubr
          -75 -51 -35 -73 -14 hvcurveto
          -183 hlineto
          5 callgsubr
          178 -92 hlineto
          -88 callgsubr
          28 20 52 53 27 -21 -65 vhcurveto
          -278 vlineto
          -11 5 -13 callgsubr
          38 hlineto
          10 5 4 11 hvcurveto
          538 -98 callsubr
          endchar
        </CharString>
        <CharString name="dvBH_NA">
          290 264 623 rmoveto
          -70 callsubr
          343 hlineto
          7 2 296 callsubr
          -44 -31 -18 -30 -17 hvcurveto
          -188 hlineto
          5 callgsubr
          174 hlineto
          1 -24 5 -28 11 -20 rrcurveto
          61 callgsubr
          -5 15 -4 475 callgsubr
          153 -100 callgsubr
          -296 vlineto
          -11 5 -13 callgsubr
          38 hlineto
          10 6 4 11 hvcurveto
          538 vlineto
          6 2 184 callgsubr
          endchar
        </CharString>
        <CharString name="dvBH_R">
          -214 361 271 callgsubr
          -96 hlineto
          -10 -63 callgsubr
          10 vhcurveto
          -113 -219 rmoveto
          89 callgsubr
          182 233 callsubr
        </CharString>
        <CharString name="dvBH_RA">
          20 269 623 rmoveto
          305 callsubr
          -199 179 callsubr
          -184 hlineto
          89 callgsubr
          183 hlineto
          5 3 -2 -3 1 hvcurveto
          -247 -268 216 callgsubr
          6 4 8 7 hvcurveto
          172 193 rlineto
          -180 -60 callsubr
          endchar
        </CharString>
        <CharString name="dvBH_R_YA">
          367 693 -91 callgsubr
          -421 70 rmoveto
          72 callsubr
          -35 -183 vlineto
          89 callgsubr
          182 -17 hlineto
          -237 -256 216 callgsubr
          6 4 8 7 hvcurveto
          174 193 rlineto
          -59 23 55 -42 83 hhcurveto
          68 -40 callsubr
          9 vhcurveto
          39 hlineto
          10 5 4 11 hvcurveto
          538 -103 callsubr
          endchar
        </CharString>
        <CharString name="dvBH_VA">
          289 265 623 rmoveto
          -10 -105 callgsubr
          10 vhcurveto
          341 -62 callsubr
          -90 -55 -52 -87 -5 hvcurveto
          -178 hlineto
          5 callgsubr
          177 -40 hlineto
          237 callsubr
          35 hlineto
          45 35 15 29 16 hvcurveto
          4 -114 hlineto
          -11 5 -5 10 vhcurveto
          38 hlineto
          10 5 -83 callsubr
          endchar
        </CharString>
        <CharString name="dvBH_YA">
          361 687 -91 callgsubr
          -422 70 rmoveto
          -2 -2 0 -1 -1 hvcurveto
          -7 -1 -3 -4 -8 vvcurveto
          -31 387 callsubr
          136 430 callsubr
          -177 vlineto
          5 callgsubr
          176 -10 hlineto
          -94 61 -77 113 vhcurveto
          68 -40 callsubr
          9 vhcurveto
          39 hlineto
          10 5 4 11 hvcurveto
          538 -103 callsubr
          endchar
        </CharString>
        <CharString name="dvB_BA">
          318 506 142 50 callgsubr
          -340 hmoveto
          -33 callsubr
          637 -19 callgsubr
          -94 -55 -56 -93 -1 hvcurveto
          -98 vlineto
          -4 0 -5 -4 vvcurveto
          -4 0 -4 -1 -3 -17 callgsubr
          -94 -56 -56 -93 310 callgsubr
          -56 608 callsubr
          53 41 20 38 24 hvcurveto
          -37 25 44 -20 56 hhcurveto
          42 381 callsubr
          15 hvcurveto
          4 -111 hlineto
          -11 6 -5 9 vhcurveto
          39 hlineto
          9 6 -83 callsubr
          endchar
        </CharString>
        <CharString name="dvB_BHA">
          298 469 callsubr
          200 -201 rlineto
          -14 -15 -22 -8 -28 hhcurveto
          286 481 rmoveto
          -12 -8 -103 callgsubr
          8 -5 12 vhcurveto
          66 -100 callgsubr
          -190 179 callsubr
          419 callsubr
          126 vlineto
          86 -49 47 -86 vhcurveto
          -288 -84 callsubr
          288 hlineto
          42 625 callgsubr
          -260 451 callsubr
          -2 -7 vhcurveto
          -196 198 rlineto
          11 15 20 6 25 hhcurveto
          44 callsubr
          -94 -56 -56 -93 310 callgsubr
          -55 92 vhcurveto
          64 hlineto
          95 51 60 78 3 hvcurveto
          3 vlineto
          58 231 callsubr
          8 vhcurveto
          193 -278 hlineto
          -11 5 -13 callgsubr
          38 241 callsubr
          3 5 10 hvcurveto
          30 195 callgsubr
        </CharString>
        <CharString name="dvB_BH_RA">
          297 468 callsubr
          202 -199 rlineto
          -17 -14 -22 -10 -32 hhcurveto
          285 481 rmoveto
          -11 -8 -103 callgsubr
          8 -5 11 vhcurveto
          66 -18 callgsubr
          -190 584 callsubr
          -183 hlineto
          561 callsubr
          126 181 callgsubr
          -287 -84 callsubr
          287 hlineto
          42 26 -22 -53 hvcurveto
          -264 vlineto
          -2 vlineto
          0 vlineto
          -1 -4 0 -4 -1 -3 -195 193 rcurveline
          10 14 20 332 callgsubr
          68 hlineto
          98 46 61 79 1 hvcurveto
          1 vlineto
          58 231 callsubr
          7 vhcurveto
          194 -21 hlineto
          -243 -264 532 callgsubr
          -4 vvcurveto
          -5 4 -5 9 441 callgsubr
          166 187 rlineto
          -171 vlineto
          -11 5 -13 callgsubr
          38 hlineto
          10 5 4 11 hvcurveto
          538 -103 callsubr
          endchar
        </CharString>
        <CharString name="dvB_DA">
          301 212 142 rmoveto
          -33 callsubr
          625 69 callsubr
          -80 451 callsubr
          -1 -8 -17 callgsubr
          -94 -56 -56 -93 310 callgsubr
          -56 608 callsubr
          52 40 20 36 25 hvcurveto
          -37 24 42 -22 58 hhcurveto
          63 hlineto
          36 28 10 24 14 hvcurveto
          -92 callsubr
          endchar
        </CharString>
        <CharString name="dvB_DHA">
          366 212 145 rmoveto
          -60 -30 32 59 hvcurveto
          92 vlineto
          14 2 12 3 11 vhcurveto
          201 -198 rlineto
          -15 -15 -22 -7 -29 hhcurveto
          352 478 rmoveto
          15 callgsubr
          21 hlineto
          11 -107 callsubr
          -11 vhcurveto
          -506 -84 callsubr
          387 399 callgsubr
          -35 vlineto
          -3 -1 -3 -1 -4 vhcurveto
          -196 194 rlineto
          11 15 20 6 25 hhcurveto
          48 -100 callsubr
          -54 hlineto
          -94 -56 -56 -93 hvcurveto
          -95 vlineto
          -94 58 -56 92 vhcurveto
          49 hlineto
          50 39 16 31 25 hvcurveto
          -38 23 42 -20 57 hhcurveto
          102 hlineto
          44 35 18 30 15 hvcurveto
          4 -107 hlineto
          -11 5 -13 callgsubr
          38 hlineto
          10 5 4 11 hvcurveto
          538 -103 callsubr
          endchar
        </CharString>
        <CharString name="dvB_DH_VA">
          630 468 callsubr
          201 -198 rlineto
          -18 -17 -19 -10 -36 hhcurveto
          384 42 callsubr
          306 -13 callsubr
          -21 3 -19 5 -16 vhcurveto
          -21 -19 -21 -18 -43 hhcurveto
          487 callsubr
          5 201 callsubr
          -5 6 -11 vhcurveto
          -62 hlineto
          -45 -24 23 46 hvcurveto
          37 279 callgsubr
          24 -104 callgsubr
          -516 -84 callsubr
          393 497 callsubr
          -4 vlineto
          202 callsubr
          -37 vlineto
          -13 vlineto
          0 vlineto
          -203 201 rlineto
          10 14 20 332 callgsubr
          46 hlineto
          60 39 24 28 26 hvcurveto
          -38 23 41 -19 56 hhcurveto
          102 hlineto
          53 34 22 26 24 hvcurveto
          -26 26 38 -14 47 hhcurveto
          35 hlineto
          45 35 15 29 16 hvcurveto
          4 -114 hlineto
          -11 5 -5 10 vhcurveto
          38 hlineto
          10 5 -83 callsubr
          endchar
        </CharString>
        <CharString name="dvB_JA">
          412 122 309 rmoveto
          16 2 14 5 12 vhcurveto
          211 -227 rlineto
          -129 hlineto
          -60 -29 33 58 hvcurveto
          -125 408 -95 callgsubr
          732 370 callgsubr
          12 vhcurveto
          49 413 callsubr
          -71 hlineto
          -243 263 rlineto
          9 14 18 4 22 hhcurveto
          55 hlineto
          11 4 5 9 hvcurveto
          34 555 callgsubr
          -94 -55 -56 -93 -1 hvcurveto
          -102 vlineto
          237 callsubr
          282 hlineto
          82 274 callgsubr
          4 144 281 callsubr
          -337 vlineto
          -11 5 -13 callgsubr
          38 hlineto
          10 5 4 11 hvcurveto
          538 -98 callsubr
          endchar
        </CharString>
        <CharString name="dvB_JHA">
          499 826 288 rmoveto
          -6 -3 -4 -8 vhcurveto
          -331 hlineto
          -46 -19 13 42 hvcurveto
          29 vlineto
          41 17 16 48 vhcurveto
          153 hlineto
          19 16 11 23 hvcurveto
          100 385 callsubr
          7 vhcurveto
          134 -100 callgsubr
          -614 -411 rmoveto
          -33 callsubr
          597 -100 callgsubr
          -63 179 callsubr
          -114 hlineto
          -80 -48 -36 -77 hvcurveto
          -134 451 callsubr
          -1 -8 -17 callgsubr
          -94 -56 -56 -93 310 callgsubr
          -55 92 vhcurveto
          60 hlineto
          92 54 54 98 hvcurveto
          -11 22 28 -5 32 hhcurveto
          77 hlineto
          44 18 -18 -41 hvcurveto
          -69 vlineto
          -44 -20 -17 -48 vhcurveto
          -37 hlineto
          -47 -25 12 48 12 -6 4 -9 hvcurveto
          528 callsubr
          -11 hvcurveto
          -177 vlineto
          -11 6 -4 9 557 callgsubr
          87 4 vlineto
          -24 14 28 -7 35 hhcurveto
          36 hlineto
          80 46 41 76 hvcurveto
          81 vlineto
          21 -5 18 -13 11 vhcurveto
          133 231 callgsubr
          -192 vlineto
          -11 5 -13 callgsubr
          38 hlineto
          10 5 4 11 hvcurveto
          538 -103 callsubr
          endchar
        </CharString>
        <CharString name="dvB_J_YA">
          764 1090 124 callgsubr
          69 17 vlineto
          84 48 38 89 hvcurveto
          18 134 callgsubr
          -968 -244 rmoveto
          16 2 14 5 12 vhcurveto
          211 -227 rlineto
          -129 hlineto
          -60 -29 33 58 hvcurveto
          -125 408 76 callsubr
          806 206 callsubr
          -14 hlineto
          28 -12 -24 15 -40 hhcurveto
          -291 hlineto
          -10 -5 100 callsubr
          -5 12 vhcurveto
          49 hlineto
          47 36 -21 -66 hvcurveto
          -76 vlineto
          -60 -25 -27 -58 vhcurveto
          -71 hlineto
          -243 263 rlineto
          9 14 18 4 22 hhcurveto
          55 hlineto
          11 4 5 9 hvcurveto
          34 555 callgsubr
          -94 -55 -56 -93 -1 hvcurveto
          -102 vlineto
          237 callsubr
          282 hlineto
          82 51 48 95 hvcurveto
          85 vlineto
          38 -12 28 567 callgsubr
          114 vlineto
          29 4 -12 -27 hvcurveto
          -70 196 callgsubr
        </CharString>
        <CharString name="dvB_JxA">
          412 414 1 214 callgsubr
          -334 308 rmoveto
          16 2 14 5 12 vhcurveto
          211 -227 rlineto
          -129 hlineto
          -60 -29 33 58 hvcurveto
          -125 408 -95 callgsubr
          732 370 callgsubr
          12 vhcurveto
          49 413 callsubr
          -71 hlineto
          -243 263 rlineto
          9 14 18 4 22 hhcurveto
          55 hlineto
          11 4 5 9 hvcurveto
          34 555 callgsubr
          -94 -55 -56 -93 -1 hvcurveto
          -102 vlineto
          237 callsubr
          282 hlineto
          82 274 callgsubr
          4 144 281 callsubr
          -337 vlineto
          -11 5 -13 callgsubr
          38 hlineto
          10 5 4 11 hvcurveto
          538 -98 callsubr
          endchar
        </CharString>
        <CharString name="dvB_LA">
          478 212 142 rmoveto
          -33 callsubr
          798 -100 callgsubr
          -147 -4 vlineto
          479 callgsubr
          -55 -36 114 callsubr
          -87 -57 -49 -101 hvcurveto
          -60 451 callsubr
          -1 -8 -17 callgsubr
          -94 -56 -56 -93 310 callgsubr
          -56 608 callsubr
          44 35 14 26 24 hvcurveto
          -60 19 50 -28 70 hhcurveto
          -94 callsubr
          28 20 52 53 27 -21 -65 vhcurveto
          -278 vlineto
          -11 5 -13 callgsubr
          38 hlineto
          10 5 4 11 hvcurveto
          538 -98 callsubr
          endchar
        </CharString>
        <CharString name="dvB_L_YA">
          245 1164 268 rmoveto
          -69 -37 -44 -78 vhcurveto
          -63 hlineto
          -75 -38 37 69 hvcurveto
          47 26 callsubr
          44 vlineto
          40 -13 27 -23 13 vhcurveto
          4 168 478 callsubr
          -952 -411 rmoveto
          -33 callsubr
          881 303 callgsubr
          -87 -57 -49 -101 hvcurveto
          -81 451 callsubr
          -1 -8 -17 callgsubr
          -94 -56 -56 -93 310 callgsubr
          -56 608 callsubr
          46 37 15 30 25 hvcurveto
          -48 23 46 -24 65 hhcurveto
          44 -50 callsubr
          10 -5 5 47 callgsubr
          25 183 callgsubr
          21 52 58 23 553 callsubr
          113 vhcurveto
          68 -40 callsubr
          10 vhcurveto
          38 hlineto
          10 5 4 11 hvcurveto
          538 -103 callsubr
          endchar
        </CharString>
        <CharString name="dvB_NA">
          346 322 171 rmoveto
          -19 -13 -21 -10 -31 hhcurveto
          -45 hlineto
          -60 -30 219 callsubr
          12 2 16 4 8 vhcurveto
          139 55 rmoveto
          -102 callgsubr
          -60 hlineto
          -94 -56 -56 -93 310 callgsubr
          -56 92 vhcurveto
          56 hlineto
          67 42 27 53 24 hvcurveto
          -242 239 rlineto
          12 14 20 6 25 hhcurveto
          -216 204 -95 callgsubr
          666 hlineto
          550 callsubr
          -174 hlineto
          -66 141 callgsubr
          -5 15 -4 358 callgsubr
          -296 vlineto
          -11 6 -4 9 vhcurveto
          39 hlineto
          9 6 4 11 hvcurveto
          538 -103 callsubr
          endchar
        </CharString>
        <CharString name="dvB_R">
          -199 366 234 rmoveto
          -6 -9 -5 -8 -6 -7 -191 192 rcurveline
          264 callsubr
          -94 -56 -56 -93 hvcurveto
          -98 vlineto
          -92 59 -52 81 vhcurveto
          37 -4 hlineto
          0 -30 222 callsubr
          87 81 33 28 76 80 14 38 rlinecurve
          5 6 4 6 6 vvcurveto
          6 -3 4 -5 3 vhcurveto
          -14 10 -6 4 -3 2 -4 -1 rlinecurve
          -5 -2 -2 -5 -6 -7 rrcurveto
          -244 94 rmoveto
          15 2 14 5 11 vhcurveto
          196 -194 rlineto
          -20 -13 -23 -12 -32 hhcurveto
          -45 hlineto
          -60 -30 32 59 hvcurveto
          -125 390 rmoveto
          -81 callsubr
          380 84 callgsubr
        </CharString>
        <CharString name="dvB_RA">
          23 233 84 rmoveto
          0 -29 222 callsubr
          85 81 rlineto
          26 22 40 45 0 vvcurveto
          4 -107 hlineto
          -11 5 -5 9 vhcurveto
          39 hlineto
          10 5 5 11 hvcurveto
          537 -98 callsubr
          -507 -84 callsubr
          342 -18 callgsubr
          -320 vlineto
          -7 -1 -7 -1 -7 vhcurveto
          -190 190 rlineto
          264 callsubr
          -94 -56 -56 -93 hvcurveto
          -98 vlineto
          -92 59 -52 81 vhcurveto
          36 hlineto
          -111 240 rmoveto
          487 callgsubr
          -45 hlineto
          -60 -30 32 59 hvcurveto
          endchar
        </CharString>
        <CharString name="dvB_SA">
          425 752 339 326 callgsubr
          -203 4 hlineto
          156 callsubr
          162 -18 callgsubr
          -540 -411 rmoveto
          -33 callsubr
          493 -64 callsubr
          -78 451 callsubr
          -1 -8 -17 callgsubr
          -94 -56 -56 -93 310 callgsubr
          -56 608 callsubr
          76 51 42 77 11 hvcurveto
          112 -190 -70 callgsubr
          -4 6 -1 3 hvcurveto
          -143 240 rlineto
          307 231 callgsubr
          -241 vlineto
          -11 5 -13 callgsubr
          38 hlineto
          10 5 4 11 hvcurveto
          538 -103 callsubr
          endchar
        </CharString>
        <CharString name="dvB_SHA">
          451 307 608 rmoveto
          208 callsubr
          -294 -84 callsubr
          294 3 callsubr
          -95 -436 rmoveto
          -60 -30 219 callsubr
          14 2 12 3 11 vhcurveto
          203 157 callgsubr
          115 300 397 callsubr
          -89 vlineto
          -63 -36 -22 -50 vhcurveto
          -129 -25 callsubr
          -69 vlineto
          -9 -1 -9 -1 -8 vhcurveto
          -198 195 rlineto
          11 15 20 6 25 hhcurveto
          44 callsubr
          -94 -56 -56 -93 310 callgsubr
          -56 92 vhcurveto
          53 hlineto
          76 51 42 78 12 hvcurveto
          130 -191 455 callgsubr
          -164 235 rlineto
          68 hlineto
          97 53 180 callgsubr
          -50 42 -87 330 callgsubr
          428 131 rmoveto
          256 callgsubr
          -578 62 callsubr
        </CharString>
        <CharString name="dvB_TA">
          316 212 142 rmoveto
          -33 callsubr
          636 hlineto
          7 2 298 callgsubr
          -89 -57 -47 -100 hvcurveto
          -41 451 callsubr
          -1 -8 -17 callgsubr
          -94 -56 -56 -93 310 callgsubr
          -56 608 callsubr
          39 32 11 21 24 hvcurveto
          -78 12 52 -36 77 hhcurveto
          484 callsubr
          453 callgsubr
          124 vlineto
          66 35 348 callsubr
          7 3 -4 -7 hvcurveto
          -333 vlineto
          -11 5 -13 callgsubr
          38 hlineto
          10 5 4 11 hvcurveto
          538 vlineto
          6 3 184 callgsubr
          endchar
        </CharString>
        <CharString name="dvB_VA">
          311 212 142 rmoveto
          -33 callsubr
          630 -37 callsubr
          -315 vlineto
          68 callsubr
          -93 -56 -56 -94 hvcurveto
          -91 451 callsubr
          -1 -8 -17 callgsubr
          -94 -56 -56 -93 310 callgsubr
          -56 608 callsubr
          55 41 22 41 23 hvcurveto
          -38 25 43 -21 56 hhcurveto
          35 381 callsubr
          15 hvcurveto
          4 -114 hlineto
          -11 6 -5 9 vhcurveto
          38 -12 callgsubr
          537 -98 callsubr
          endchar
        </CharString>
        <CharString name="dvB_YA">
          384 710 -91 callgsubr
          -498 -411 rmoveto
          -33 callsubr
          427 167 callsubr
          -7 vlineto
          -3 vlineto
          -22 451 callsubr
          -1 -8 -17 callgsubr
          -94 -56 -56 -93 hvcurveto
          570 callsubr
          49 22 hvcurveto
          -38 29 47 -25 64 hhcurveto
          68 -40 callsubr
          9 vhcurveto
          39 hlineto
          10 5 4 11 hvcurveto
          538 -103 callsubr
          endchar
        </CharString>
        <CharString name="dvC">
          -141 448 563 rmoveto
          -102 callgsubr
          -451 -84 callsubr
          323 -466 rmoveto
          73 43 43 33 24 hvcurveto
          2 3 3 5 5 vvcurveto
          6 -2 4 -6 5 vhcurveto
          -14 11 339 callgsubr
          -7 -5 -5 -6 -6 hvcurveto
          -25 -23 -21 -23 -49 hhcurveto
          -58 109 callsubr
          -41 vvcurveto
          -38 584 callgsubr
          endchar
        </CharString>
        <CharString name="dvCA">
          94 146 374 572 callsubr
          93 vhcurveto
          66 hlineto
          51 197 callgsubr
          76 hlineto
          11 -107 callsubr
          -11 vhcurveto
          -578 -84 callsubr
          413 -100 callgsubr
          -300 vlineto
          -60 -33 -34 -60 vhcurveto
          -66 43 callgsubr
          hlineto
          endchar
        </CharString>
</ttFont>
